<mxfile host="65bd71144e" pages="2">
    <diagram id="HpdsxBI1dH8TZCe0Te-M" name="Entities with relations">
        <mxGraphModel dx="3951" dy="1031" grid="1" gridSize="10" guides="1" tooltips="1" connect="1" arrows="1" fold="1" page="1" pageScale="1" pageWidth="827" pageHeight="1169" math="0" shadow="0">
            <root>
                <mxCell id="0"/>
                <mxCell id="1" parent="0"/>
                <mxCell id="spxTNeBxtqFX0eM1KkgY-1" value="&lt;font style=&quot;font-size: 20px;&quot;&gt;Article&lt;/font&gt;" style="rounded=0;whiteSpace=wrap;html=1;fontSize=20;spacingTop=5;" parent="1" vertex="1">
                    <mxGeometry x="353" y="250" width="121" height="70" as="geometry"/>
                </mxCell>
                <mxCell id="spxTNeBxtqFX0eM1KkgY-11" value="&lt;font style=&quot;font-size: 20px;&quot;&gt;Comment&lt;/font&gt;" style="rounded=0;whiteSpace=wrap;html=1;fontSize=20;spacingTop=5;" parent="1" vertex="1">
                    <mxGeometry x="989" y="250" width="130" height="70" as="geometry"/>
                </mxCell>
                <mxCell id="spxTNeBxtqFX0eM1KkgY-22" value="HAS" style="rhombus;whiteSpace=wrap;html=1;labelBorderColor=none;strokeWidth=1;fontSize=20;fontColor=#000000;spacingTop=5;" parent="1" vertex="1">
                    <mxGeometry x="717" y="210" width="110" height="90" as="geometry"/>
                </mxCell>
                <mxCell id="spxTNeBxtqFX0eM1KkgY-23" value="" style="endArrow=classic;html=1;rounded=0;fontSize=20;fontColor=#000000;exitX=1;exitY=0.75;exitDx=0;exitDy=0;entryX=0;entryY=0.5;entryDx=0;entryDy=0;spacingTop=5;" parent="1" source="spxTNeBxtqFX0eM1KkgY-1" target="spxTNeBxtqFX0eM1KkgY-22" edge="1">
                    <mxGeometry relative="1" as="geometry">
                        <mxPoint x="530" y="270" as="sourcePoint"/>
                        <mxPoint x="720" y="280" as="targetPoint"/>
                    </mxGeometry>
                </mxCell>
                <mxCell id="spxTNeBxtqFX0eM1KkgY-24" value="&lt;font style=&quot;font-size: 20px;&quot;&gt;1&lt;/font&gt;" style="edgeLabel;resizable=0;html=1;align=left;verticalAlign=bottom;labelBorderColor=none;strokeWidth=1;fontSize=20;fontColor=#000000;spacingTop=5;" parent="spxTNeBxtqFX0eM1KkgY-23" connectable="0" vertex="1">
                    <mxGeometry x="-1" relative="1" as="geometry">
                        <mxPoint x="146" y="283" as="offset"/>
                    </mxGeometry>
                </mxCell>
                <mxCell id="spxTNeBxtqFX0eM1KkgY-25" value="&lt;font style=&quot;font-size: 20px;&quot;&gt;TOPIC&lt;/font&gt;" style="rounded=0;whiteSpace=wrap;html=1;fontSize=20;spacingTop=5;" parent="1" vertex="1">
                    <mxGeometry x="-700" y="290" width="120" height="50" as="geometry"/>
                </mxCell>
                <mxCell id="spxTNeBxtqFX0eM1KkgY-31" value="M" style="shape=link;html=1;rounded=0;fontSize=20;fontColor=#000000;width=-3;exitX=0.9;exitY=0.597;exitDx=0;exitDy=0;exitPerimeter=0;spacingTop=5;" parent="1" source="spxTNeBxtqFX0eM1KkgY-22" edge="1">
                    <mxGeometry x="-0.7536" y="17" width="100" relative="1" as="geometry">
                        <mxPoint x="820" y="290" as="sourcePoint"/>
                        <mxPoint x="990" y="290" as="targetPoint"/>
                        <mxPoint as="offset"/>
                    </mxGeometry>
                </mxCell>
                <mxCell id="spxTNeBxtqFX0eM1KkgY-34" value="WROTE" style="rhombus;whiteSpace=wrap;html=1;labelBorderColor=none;strokeWidth=1;fontSize=20;fontColor=#000000;spacingTop=5;" parent="1" vertex="1">
                    <mxGeometry x="520" y="480" width="100" height="100" as="geometry"/>
                </mxCell>
                <mxCell id="spxTNeBxtqFX0eM1KkgY-35" value="" style="endArrow=classic;html=1;rounded=0;fontSize=20;fontColor=#000000;exitX=1;exitY=1;exitDx=0;exitDy=0;spacingTop=5;" parent="1" source="spxTNeBxtqFX0eM1KkgY-34" target="spxTNeBxtqFX0eM1KkgY-54" edge="1">
                    <mxGeometry relative="1" as="geometry">
                        <mxPoint x="700" y="580" as="sourcePoint"/>
                        <mxPoint x="630" y="1300" as="targetPoint"/>
                        <Array as="points">
                            <mxPoint x="690" y="830"/>
                        </Array>
                    </mxGeometry>
                </mxCell>
                <mxCell id="spxTNeBxtqFX0eM1KkgY-36" value="M" style="edgeLabel;resizable=0;html=1;align=left;verticalAlign=bottom;labelBorderColor=none;strokeWidth=1;fontSize=20;fontColor=#000000;spacingTop=5;" parent="spxTNeBxtqFX0eM1KkgY-35" connectable="0" vertex="1">
                    <mxGeometry x="-1" relative="1" as="geometry">
                        <mxPoint x="-60" y="-135" as="offset"/>
                    </mxGeometry>
                </mxCell>
                <mxCell id="spxTNeBxtqFX0eM1KkgY-39" value="" style="shape=link;html=1;rounded=0;fontSize=20;fontColor=#000000;entryX=1;entryY=1;entryDx=0;entryDy=0;exitX=0.346;exitY=0.092;exitDx=0;exitDy=0;exitPerimeter=0;spacingTop=5;" parent="1" source="spxTNeBxtqFX0eM1KkgY-34" target="spxTNeBxtqFX0eM1KkgY-1" edge="1">
                    <mxGeometry width="100" relative="1" as="geometry">
                        <mxPoint x="560" y="450" as="sourcePoint"/>
                        <mxPoint x="350" y="250" as="targetPoint"/>
                        <Array as="points"/>
                    </mxGeometry>
                </mxCell>
                <mxCell id="spxTNeBxtqFX0eM1KkgY-40" value="WROTE" style="rhombus;whiteSpace=wrap;html=1;fontSize=20;spacingTop=5;" parent="1" vertex="1">
                    <mxGeometry x="820" y="730" width="120" height="110" as="geometry"/>
                </mxCell>
                <mxCell id="spxTNeBxtqFX0eM1KkgY-44" style="edgeStyle=orthogonalEdgeStyle;rounded=0;orthogonalLoop=1;jettySize=auto;html=1;exitX=0;exitY=1;exitDx=0;exitDy=0;entryX=0.68;entryY=1.045;entryDx=0;entryDy=0;entryPerimeter=0;fontSize=20;spacingTop=5;" parent="1" source="spxTNeBxtqFX0eM1KkgY-46" target="spxTNeBxtqFX0eM1KkgY-11" edge="1">
                    <mxGeometry relative="1" as="geometry"/>
                </mxCell>
                <mxCell id="spxTNeBxtqFX0eM1KkgY-45" style="edgeStyle=orthogonalEdgeStyle;rounded=0;orthogonalLoop=1;jettySize=auto;html=1;exitX=1;exitY=0;exitDx=0;exitDy=0;entryX=1;entryY=0.5;entryDx=0;entryDy=0;fontSize=20;spacingTop=5;" parent="1" source="spxTNeBxtqFX0eM1KkgY-46" target="spxTNeBxtqFX0eM1KkgY-11" edge="1">
                    <mxGeometry relative="1" as="geometry">
                        <mxPoint x="1230" y="290" as="targetPoint"/>
                    </mxGeometry>
                </mxCell>
                <mxCell id="spxTNeBxtqFX0eM1KkgY-46" value="Reply" style="rhombus;whiteSpace=wrap;html=1;labelBorderColor=none;strokeWidth=1;fontSize=20;fontColor=#000000;spacingTop=5;" parent="1" vertex="1">
                    <mxGeometry x="1170" y="330" width="110" height="90" as="geometry"/>
                </mxCell>
                <mxCell id="spxTNeBxtqFX0eM1KkgY-53" value="&lt;span style=&quot;font-size: 20px;&quot;&gt;Student&amp;nbsp;&lt;br style=&quot;font-size: 20px;&quot;&gt;&lt;/span&gt;" style="rounded=0;whiteSpace=wrap;html=1;fontSize=20;spacingTop=5;" parent="1" vertex="1">
                    <mxGeometry x="235.5" y="1320" width="180" height="70" as="geometry"/>
                </mxCell>
                <mxCell id="spxTNeBxtqFX0eM1KkgY-54" value="&lt;span style=&quot;font-size: 20px;&quot;&gt;Instructor&amp;nbsp;&lt;/span&gt;&lt;span style=&quot;font-size: 20px;&quot;&gt;&lt;br style=&quot;font-size: 20px;&quot;&gt;&lt;/span&gt;" style="rounded=0;whiteSpace=wrap;html=1;fontSize=20;spacingTop=5;" parent="1" vertex="1">
                    <mxGeometry x="607" y="1475" width="180" height="70" as="geometry"/>
                </mxCell>
                <mxCell id="spxTNeBxtqFX0eM1KkgY-59" value="O" style="ellipse;whiteSpace=wrap;html=1;aspect=fixed;fontSize=20;spacingTop=5;" parent="1" vertex="1">
                    <mxGeometry x="449.75" y="1240" width="70" height="70" as="geometry"/>
                </mxCell>
                <mxCell id="spxTNeBxtqFX0eM1KkgY-62" value="&lt;span style=&quot;font-size: 20px;&quot;&gt;User&lt;/span&gt;" style="rounded=0;whiteSpace=wrap;html=1;fontSize=20;spacingTop=5;" parent="1" vertex="1">
                    <mxGeometry x="439.5" y="1100" width="184.5" height="90" as="geometry"/>
                </mxCell>
                <mxCell id="spxTNeBxtqFX0eM1KkgY-78" value="&lt;span style=&quot;font-size: 20px;&quot;&gt;COURSE&lt;/span&gt;" style="rounded=0;whiteSpace=wrap;html=1;fontSize=20;spacingTop=5;" parent="1" vertex="1">
                    <mxGeometry x="-1087.25" y="1380" width="130" height="70" as="geometry"/>
                </mxCell>
                <mxCell id="spxTNeBxtqFX0eM1KkgY-85" value="" style="endArrow=classic;html=1;rounded=0;fontSize=20;exitX=1;exitY=0.5;exitDx=0;exitDy=0;spacingTop=5;" parent="1" source="spxTNeBxtqFX0eM1KkgY-89" target="spxTNeBxtqFX0eM1KkgY-53" edge="1">
                    <mxGeometry relative="1" as="geometry">
                        <mxPoint x="-947.25" y="1345" as="sourcePoint"/>
                        <mxPoint x="-517.25" y="1405" as="targetPoint"/>
                    </mxGeometry>
                </mxCell>
                <mxCell id="spxTNeBxtqFX0eM1KkgY-86" value="M" style="edgeLabel;resizable=0;html=1;align=left;verticalAlign=bottom;fontSize=20;spacingTop=5;" parent="spxTNeBxtqFX0eM1KkgY-85" connectable="0" vertex="1">
                    <mxGeometry x="-1" relative="1" as="geometry">
                        <mxPoint x="20" y="25" as="offset"/>
                    </mxGeometry>
                </mxCell>
                <mxCell id="spxTNeBxtqFX0eM1KkgY-87" value="" style="endArrow=classic;html=1;rounded=0;fontSize=20;entryX=0;entryY=0.5;entryDx=0;entryDy=0;spacingTop=5;" parent="1" target="spxTNeBxtqFX0eM1KkgY-89" edge="1">
                    <mxGeometry relative="1" as="geometry">
                        <mxPoint x="-957.25" y="1406" as="sourcePoint"/>
                        <mxPoint x="-787.25" y="1406" as="targetPoint"/>
                    </mxGeometry>
                </mxCell>
                <mxCell id="spxTNeBxtqFX0eM1KkgY-88" value="M" style="edgeLabel;resizable=0;html=1;align=left;verticalAlign=bottom;fontSize=20;spacingTop=5;" parent="spxTNeBxtqFX0eM1KkgY-87" connectable="0" vertex="1">
                    <mxGeometry x="-1" relative="1" as="geometry">
                        <mxPoint x="567" y="84" as="offset"/>
                    </mxGeometry>
                </mxCell>
                <mxCell id="spxTNeBxtqFX0eM1KkgY-89" value="ENROLL" style="rhombus;whiteSpace=wrap;html=1;fontSize=20;spacingTop=5;" parent="1" vertex="1">
                    <mxGeometry x="-360" y="1450" width="120" height="110" as="geometry"/>
                </mxCell>
                <mxCell id="spxTNeBxtqFX0eM1KkgY-91" value="&lt;span style=&quot;font-size: 20px;&quot;&gt;LESSON&lt;/span&gt;&lt;span style=&quot;font-size: 20px;&quot;&gt;&lt;br style=&quot;font-size: 20px;&quot;&gt;&lt;/span&gt;" style="rounded=0;whiteSpace=wrap;html=1;fontSize=20;spacingTop=5;" parent="1" vertex="1">
                    <mxGeometry x="-413" y="1025" width="133" height="65" as="geometry"/>
                </mxCell>
                <mxCell id="spxTNeBxtqFX0eM1KkgY-103" value="HAS" style="rhombus;whiteSpace=wrap;html=1;fontSize=20;spacingTop=5;" parent="1" vertex="1">
                    <mxGeometry x="100" y="590" width="80" height="80" as="geometry"/>
                </mxCell>
                <mxCell id="spxTNeBxtqFX0eM1KkgY-106" value="" style="endArrow=classic;html=1;rounded=0;fontSize=20;exitX=1;exitY=0.5;exitDx=0;exitDy=0;spacingTop=5;entryX=0;entryY=1;entryDx=0;entryDy=0;" parent="1" source="spxTNeBxtqFX0eM1KkgY-103" target="spxTNeBxtqFX0eM1KkgY-1" edge="1">
                    <mxGeometry relative="1" as="geometry">
                        <mxPoint x="-129.99999999999955" y="860" as="sourcePoint"/>
                        <mxPoint x="401.27199999999993" y="296.5699999999997" as="targetPoint"/>
                        <Array as="points"/>
                    </mxGeometry>
                </mxCell>
                <mxCell id="spxTNeBxtqFX0eM1KkgY-107" value="M" style="edgeLabel;resizable=0;html=1;align=left;verticalAlign=bottom;fontSize=20;spacingTop=5;" parent="spxTNeBxtqFX0eM1KkgY-106" connectable="0" vertex="1">
                    <mxGeometry x="-1" relative="1" as="geometry">
                        <mxPoint y="-30" as="offset"/>
                    </mxGeometry>
                </mxCell>
                <mxCell id="spxTNeBxtqFX0eM1KkgY-108" value="HAS" style="rhombus;whiteSpace=wrap;html=1;fontSize=20;spacingTop=5;" parent="1" vertex="1">
                    <mxGeometry x="-450" y="810" width="80" height="80" as="geometry"/>
                </mxCell>
                <mxCell id="spxTNeBxtqFX0eM1KkgY-114" value="&lt;span style=&quot;font-size: 20px;&quot;&gt;GROUP CHAT&lt;/span&gt;" style="rounded=0;whiteSpace=wrap;html=1;fontSize=20;spacingTop=5;" parent="1" vertex="1">
                    <mxGeometry x="-857.25" y="1660" width="110" height="65" as="geometry"/>
                </mxCell>
                <mxCell id="spxTNeBxtqFX0eM1KkgY-120" value="&lt;font style=&quot;font-size: 20px;&quot;&gt;HAS&lt;/font&gt;" style="rhombus;whiteSpace=wrap;html=1;fontSize=20;spacingTop=5;" parent="1" vertex="1">
                    <mxGeometry x="-1077.25" y="1545" width="80" height="80" as="geometry"/>
                </mxCell>
                <mxCell id="spxTNeBxtqFX0eM1KkgY-121" value="" style="endArrow=classic;html=1;rounded=0;fontSize=20;entryX=0.5;entryY=0;entryDx=0;entryDy=0;exitX=0.395;exitY=0.989;exitDx=0;exitDy=0;exitPerimeter=0;spacingTop=5;" parent="1" source="spxTNeBxtqFX0eM1KkgY-78" target="spxTNeBxtqFX0eM1KkgY-120" edge="1">
                    <mxGeometry relative="1" as="geometry">
                        <mxPoint x="-1037.25" y="1465" as="sourcePoint"/>
                        <mxPoint x="-937.25" y="1475" as="targetPoint"/>
                    </mxGeometry>
                </mxCell>
                <mxCell id="spxTNeBxtqFX0eM1KkgY-122" value="1" style="edgeLabel;resizable=0;html=1;align=left;verticalAlign=bottom;fontSize=20;spacingTop=5;" parent="spxTNeBxtqFX0eM1KkgY-121" connectable="0" vertex="1">
                    <mxGeometry x="-1" relative="1" as="geometry">
                        <mxPoint y="39" as="offset"/>
                    </mxGeometry>
                </mxCell>
                <mxCell id="spxTNeBxtqFX0eM1KkgY-125" value="&lt;span style=&quot;font-size: 20px;&quot;&gt;&lt;br style=&quot;font-size: 20px;&quot;&gt;&lt;/span&gt;" style="rounded=0;whiteSpace=wrap;html=1;fontSize=20;spacingTop=5;" parent="1" vertex="1">
                    <mxGeometry x="-437.25" y="1670" width="217.25" height="90" as="geometry"/>
                </mxCell>
                <mxCell id="spxTNeBxtqFX0eM1KkgY-130" value="&lt;font style=&quot;font-size: 20px;&quot;&gt;HAS&lt;/font&gt;" style="rhombus;whiteSpace=wrap;html=1;fontSize=20;spacingTop=5;" parent="1" vertex="1">
                    <mxGeometry x="-617.25" y="1661.77" width="80" height="80" as="geometry"/>
                </mxCell>
                <mxCell id="spxTNeBxtqFX0eM1KkgY-131" value="" style="endArrow=classic;html=1;rounded=0;fontSize=20;entryX=0;entryY=0.5;entryDx=0;entryDy=0;exitX=1;exitY=0.5;exitDx=0;exitDy=0;spacingTop=5;" parent="1" source="spxTNeBxtqFX0eM1KkgY-114" target="spxTNeBxtqFX0eM1KkgY-130" edge="1">
                    <mxGeometry relative="1" as="geometry">
                        <mxPoint x="-1025.9" y="1459.23" as="sourcePoint"/>
                        <mxPoint x="-1027.25" y="1555" as="targetPoint"/>
                    </mxGeometry>
                </mxCell>
                <mxCell id="spxTNeBxtqFX0eM1KkgY-132" value="1" style="edgeLabel;resizable=0;html=1;align=left;verticalAlign=bottom;fontSize=20;spacingTop=5;" parent="spxTNeBxtqFX0eM1KkgY-131" connectable="0" vertex="1">
                    <mxGeometry x="-1" relative="1" as="geometry">
                        <mxPoint x="100" as="offset"/>
                    </mxGeometry>
                </mxCell>
                <mxCell id="spxTNeBxtqFX0eM1KkgY-138" value="&lt;span style=&quot;font-size: 20px;&quot;&gt;SEND&lt;/span&gt;" style="rhombus;whiteSpace=wrap;html=1;fontSize=20;spacingTop=5;" parent="1" vertex="1">
                    <mxGeometry x="202.75" y="1674" width="80" height="80" as="geometry"/>
                </mxCell>
                <mxCell id="spxTNeBxtqFX0eM1KkgY-139" value="" style="endArrow=classic;html=1;rounded=0;fontSize=20;entryX=1;entryY=0.5;entryDx=0;entryDy=0;exitX=0.75;exitY=1;exitDx=0;exitDy=0;spacingTop=5;" parent="1" source="spxTNeBxtqFX0eM1KkgY-62" target="spxTNeBxtqFX0eM1KkgY-138" edge="1">
                    <mxGeometry relative="1" as="geometry">
                        <mxPoint x="-309.50000000000045" y="1441.8000000000002" as="sourcePoint"/>
                        <mxPoint x="-452.25" y="1505" as="targetPoint"/>
                        <Array as="points">
                            <mxPoint x="540" y="1610"/>
                        </Array>
                    </mxGeometry>
                </mxCell>
                <mxCell id="spxTNeBxtqFX0eM1KkgY-140" value="1" style="edgeLabel;resizable=0;html=1;align=left;verticalAlign=bottom;fontSize=20;spacingTop=5;" parent="spxTNeBxtqFX0eM1KkgY-139" connectable="0" vertex="1">
                    <mxGeometry x="-1" relative="1" as="geometry">
                        <mxPoint x="-238" y="484" as="offset"/>
                    </mxGeometry>
                </mxCell>
                <mxCell id="spxTNeBxtqFX0eM1KkgY-141" value="" style="endArrow=classic;html=1;rounded=0;fontSize=20;entryX=1;entryY=0.75;entryDx=0;entryDy=0;exitX=0;exitY=0.5;exitDx=0;exitDy=0;spacingTop=5;" parent="1" source="spxTNeBxtqFX0eM1KkgY-138" target="spxTNeBxtqFX0eM1KkgY-125" edge="1">
                    <mxGeometry relative="1" as="geometry">
                        <mxPoint x="-452.25" y="1585" as="sourcePoint"/>
                        <mxPoint x="-398.55999999999995" y="1677.6" as="targetPoint"/>
                        <Array as="points"/>
                    </mxGeometry>
                </mxCell>
                <mxCell id="spxTNeBxtqFX0eM1KkgY-142" value="M" style="edgeLabel;resizable=0;html=1;align=left;verticalAlign=bottom;fontSize=20;spacingTop=5;" parent="spxTNeBxtqFX0eM1KkgY-141" connectable="0" vertex="1">
                    <mxGeometry x="-1" relative="1" as="geometry">
                        <mxPoint x="-53" as="offset"/>
                    </mxGeometry>
                </mxCell>
                <mxCell id="spxTNeBxtqFX0eM1KkgY-144" value="M" style="shape=link;html=1;rounded=0;fontSize=20;entryX=0;entryY=0.75;entryDx=0;entryDy=0;spacingTop=5;" parent="1" edge="1">
                    <mxGeometry x="-0.7893" y="22" width="100" relative="1" as="geometry">
                        <mxPoint x="-546.25" y="1708" as="sourcePoint"/>
                        <mxPoint x="-436.25" y="1737.5" as="targetPoint"/>
                        <mxPoint x="1" as="offset"/>
                    </mxGeometry>
                </mxCell>
                <mxCell id="spxTNeBxtqFX0eM1KkgY-145" value="1" style="shape=link;html=1;rounded=0;fontSize=20;spacingTop=5;exitX=0.25;exitY=0;exitDx=0;exitDy=0;" parent="1" source="spxTNeBxtqFX0eM1KkgY-91" edge="1">
                    <mxGeometry x="0.3716" y="32" width="100" relative="1" as="geometry">
                        <mxPoint x="-570" y="1120" as="sourcePoint"/>
                        <mxPoint x="-390" y="870" as="targetPoint"/>
                        <mxPoint y="-1" as="offset"/>
                    </mxGeometry>
                </mxCell>
                <mxCell id="spxTNeBxtqFX0eM1KkgY-146" value="1" style="shape=link;html=1;rounded=0;fontSize=20;entryX=0;entryY=1;entryDx=0;entryDy=0;exitX=1;exitY=0.25;exitDx=0;exitDy=0;spacingTop=5;" parent="1" source="spxTNeBxtqFX0eM1KkgY-91" target="spxTNeBxtqFX0eM1KkgY-103" edge="1">
                    <mxGeometry x="0.8745" y="20" width="100" relative="1" as="geometry">
                        <mxPoint x="-537.25" y="1160" as="sourcePoint"/>
                        <mxPoint x="-427.25" y="1215" as="targetPoint"/>
                        <Array as="points"/>
                        <mxPoint as="offset"/>
                    </mxGeometry>
                </mxCell>
                <mxCell id="spxTNeBxtqFX0eM1KkgY-147" value="1" style="shape=link;html=1;rounded=0;fontSize=20;exitX=0;exitY=0.25;exitDx=0;exitDy=0;entryX=1;entryY=1;entryDx=0;entryDy=0;spacingTop=5;" parent="1" source="spxTNeBxtqFX0eM1KkgY-114" target="spxTNeBxtqFX0eM1KkgY-120" edge="1">
                    <mxGeometry x="0.8701" y="-17" width="100" relative="1" as="geometry">
                        <mxPoint x="-1097.25" y="1685" as="sourcePoint"/>
                        <mxPoint x="-917.25" y="1645" as="targetPoint"/>
                        <Array as="points">
                            <mxPoint x="-1017.25" y="1676"/>
                        </Array>
                        <mxPoint as="offset"/>
                    </mxGeometry>
                </mxCell>
                <mxCell id="spxTNeBxtqFX0eM1KkgY-150" value="INSTRUCTS" style="rhombus;whiteSpace=wrap;html=1;fontSize=20;spacingTop=5;" parent="1" vertex="1">
                    <mxGeometry x="-437.25" y="1541.77" width="140" height="120" as="geometry"/>
                </mxCell>
                <mxCell id="spxTNeBxtqFX0eM1KkgY-151" value="" style="endArrow=classic;html=1;rounded=0;fontSize=20;entryX=0;entryY=0.5;entryDx=0;entryDy=0;spacingTop=5;" parent="1" target="spxTNeBxtqFX0eM1KkgY-150" edge="1">
                    <mxGeometry relative="1" as="geometry">
                        <mxPoint x="-960" y="1416" as="sourcePoint"/>
                        <mxPoint x="-747.25" y="1355" as="targetPoint"/>
                    </mxGeometry>
                </mxCell>
                <mxCell id="spxTNeBxtqFX0eM1KkgY-152" value="M" style="edgeLabel;resizable=0;html=1;align=left;verticalAlign=bottom;fontSize=20;spacingTop=5;" parent="spxTNeBxtqFX0eM1KkgY-151" connectable="0" vertex="1">
                    <mxGeometry x="-1" relative="1" as="geometry">
                        <mxPoint x="468" y="154" as="offset"/>
                    </mxGeometry>
                </mxCell>
                <mxCell id="spxTNeBxtqFX0eM1KkgY-153" value="" style="endArrow=classic;html=1;rounded=0;fontSize=20;exitX=1;exitY=0.5;exitDx=0;exitDy=0;entryX=0;entryY=0.75;entryDx=0;entryDy=0;spacingTop=5;" parent="1" source="spxTNeBxtqFX0eM1KkgY-150" target="spxTNeBxtqFX0eM1KkgY-54" edge="1">
                    <mxGeometry relative="1" as="geometry">
                        <mxPoint x="-647.25" y="1355" as="sourcePoint"/>
                        <mxPoint x="245.49999999999955" y="1364.0842024930043" as="targetPoint"/>
                        <Array as="points">
                            <mxPoint x="-10" y="1540"/>
                        </Array>
                    </mxGeometry>
                </mxCell>
                <mxCell id="spxTNeBxtqFX0eM1KkgY-154" value="1" style="edgeLabel;resizable=0;html=1;align=left;verticalAlign=bottom;fontSize=20;spacingTop=5;" parent="spxTNeBxtqFX0eM1KkgY-153" connectable="0" vertex="1">
                    <mxGeometry x="-1" relative="1" as="geometry">
                        <mxPoint x="11" y="23" as="offset"/>
                    </mxGeometry>
                </mxCell>
                <mxCell id="spxTNeBxtqFX0eM1KkgY-162" value="M" style="shape=link;html=1;rounded=0;fontSize=20;fontColor=#000000;entryX=0;entryY=1;entryDx=0;entryDy=0;spacingTop=5;" parent="1" target="spxTNeBxtqFX0eM1KkgY-11" edge="1">
                    <mxGeometry x="0.8338" y="21" width="100" relative="1" as="geometry">
                        <mxPoint x="889.9999999999995" y="740" as="sourcePoint"/>
                        <mxPoint x="1010" y="330" as="targetPoint"/>
                        <Array as="points"/>
                        <mxPoint as="offset"/>
                    </mxGeometry>
                </mxCell>
                <mxCell id="spxTNeBxtqFX0eM1KkgY-163" value="HAS" style="rhombus;whiteSpace=wrap;html=1;fontSize=20;spacingTop=5;" parent="1" vertex="1">
                    <mxGeometry x="-670" y="420" width="100" height="100" as="geometry"/>
                </mxCell>
                <mxCell id="spxTNeBxtqFX0eM1KkgY-170" value="Element" style="rounded=0;whiteSpace=wrap;html=1;fillColor=#f5f5f5;fontColor=#333333;strokeColor=#666666;fontSize=20;spacingTop=5;" parent="1" vertex="1">
                    <mxGeometry x="-220" y="370" width="120" height="30" as="geometry"/>
                </mxCell>
                <mxCell id="spxTNeBxtqFX0eM1KkgY-181" value="Quiz" style="rounded=0;whiteSpace=wrap;html=1;fillColor=#f5f5f5;fontColor=#333333;strokeColor=#666666;fontSize=20;spacingTop=5;" parent="1" vertex="1">
                    <mxGeometry x="-490" y="710" width="120" height="30" as="geometry"/>
                </mxCell>
                <mxCell id="spxTNeBxtqFX0eM1KkgY-182" value="Questions" style="rounded=0;whiteSpace=wrap;html=1;fillColor=#f5f5f5;fontColor=#333333;strokeColor=#666666;fontSize=20;spacingTop=5;" parent="1" vertex="1">
                    <mxGeometry x="-867.25" y="740" width="120" height="30" as="geometry"/>
                </mxCell>
                <mxCell id="spxTNeBxtqFX0eM1KkgY-183" value="d" style="ellipse;whiteSpace=wrap;html=1;aspect=fixed;fontSize=20;fontColor=#333333;rounded=0;fillColor=#f5f5f5;strokeColor=#666666;spacingTop=5;" parent="1" vertex="1">
                    <mxGeometry x="-100" y="490" width="78" height="78" as="geometry"/>
                </mxCell>
                <mxCell id="spxTNeBxtqFX0eM1KkgY-193" value="Choices" style="rounded=0;whiteSpace=wrap;html=1;fillColor=#f5f5f5;fontColor=#333333;strokeColor=#666666;absoluteArcSize=0;double=1;snapToPoint=1;fixDash=0;autosize=0;container=0;dropTarget=0;collapsible=0;backgroundOutline=1;comic=0;treeMoving=0;treeFolding=0;perimeterSpacing=0;strokeWidth=1;fontSize=20;spacingTop=5;" parent="1" vertex="1">
                    <mxGeometry x="-857.25" y="1020" width="137.25" height="80" as="geometry"/>
                </mxCell>
                <mxCell id="spxTNeBxtqFX0eM1KkgY-213" value="M" style="shape=link;html=1;rounded=0;fontSize=20;spacingTop=5;exitX=0;exitY=1;exitDx=0;exitDy=0;entryX=0.5;entryY=0;entryDx=0;entryDy=0;" parent="1" source="spxTNeBxtqFX0eM1KkgY-266" target="spxTNeBxtqFX0eM1KkgY-193" edge="1">
                    <mxGeometry x="0.0624" y="30" width="100" relative="1" as="geometry">
                        <mxPoint x="-940" y="950" as="sourcePoint"/>
                        <mxPoint x="-1050" y="1060" as="targetPoint"/>
                        <mxPoint as="offset"/>
                    </mxGeometry>
                </mxCell>
                <mxCell id="spxTNeBxtqFX0eM1KkgY-214" value="" style="endArrow=classic;html=1;rounded=0;exitX=0.596;exitY=0.943;exitDx=0;exitDy=0;entryX=0.5;entryY=0;entryDx=0;entryDy=0;exitPerimeter=0;fontSize=20;spacingTop=5;" parent="1" edge="1">
                    <mxGeometry relative="1" as="geometry">
                        <mxPoint x="-790" y="770" as="sourcePoint"/>
                        <mxPoint x="-744.27" y="864.21" as="targetPoint"/>
                    </mxGeometry>
                </mxCell>
                <mxCell id="spxTNeBxtqFX0eM1KkgY-215" value="1" style="edgeLabel;resizable=0;html=1;align=left;verticalAlign=bottom;fontSize=20;spacingTop=5;" parent="spxTNeBxtqFX0eM1KkgY-214" connectable="0" vertex="1">
                    <mxGeometry x="-1" relative="1" as="geometry">
                        <mxPoint x="-12" y="50" as="offset"/>
                    </mxGeometry>
                </mxCell>
                <mxCell id="spxTNeBxtqFX0eM1KkgY-221" value="" style="endArrow=classic;html=1;rounded=0;fontSize=20;exitX=0.5;exitY=0;exitDx=0;exitDy=0;spacingTop=5;entryX=0.75;entryY=1;entryDx=0;entryDy=0;" parent="1" source="spxTNeBxtqFX0eM1KkgY-108" target="spxTNeBxtqFX0eM1KkgY-181" edge="1">
                    <mxGeometry relative="1" as="geometry">
                        <mxPoint x="-120" y="850" as="sourcePoint"/>
                        <mxPoint x="419.5" y="290" as="targetPoint"/>
                        <Array as="points"/>
                    </mxGeometry>
                </mxCell>
                <mxCell id="spxTNeBxtqFX0eM1KkgY-222" value="M" style="edgeLabel;resizable=0;html=1;align=left;verticalAlign=bottom;fontSize=20;spacingTop=5;" parent="spxTNeBxtqFX0eM1KkgY-221" connectable="0" vertex="1">
                    <mxGeometry x="-1" relative="1" as="geometry">
                        <mxPoint x="10" as="offset"/>
                    </mxGeometry>
                </mxCell>
                <mxCell id="spxTNeBxtqFX0eM1KkgY-230" value="CONVERSATION MESSAGE" style="rounded=0;whiteSpace=wrap;html=1;fontSize=20;" parent="1" vertex="1">
                    <mxGeometry x="-418.62" y="1685" width="180" height="60" as="geometry"/>
                </mxCell>
                <mxCell id="spxTNeBxtqFX0eM1KkgY-232" value="TAKES" style="rhombus;whiteSpace=wrap;html=1;fontSize=20;spacingTop=5;" parent="1" vertex="1">
                    <mxGeometry x="60" y="840" width="100" height="105" as="geometry"/>
                </mxCell>
                <mxCell id="spxTNeBxtqFX0eM1KkgY-233" value="" style="endArrow=classic;html=1;rounded=0;fontSize=20;exitX=0;exitY=0;exitDx=0;exitDy=0;spacingTop=5;entryX=1;entryY=0.75;entryDx=0;entryDy=0;" parent="1" source="spxTNeBxtqFX0eM1KkgY-232" target="spxTNeBxtqFX0eM1KkgY-181" edge="1">
                    <mxGeometry relative="1" as="geometry">
                        <mxPoint x="-627.25" y="820" as="sourcePoint"/>
                        <mxPoint x="-764.25" y="727" as="targetPoint"/>
                        <Array as="points"/>
                    </mxGeometry>
                </mxCell>
                <mxCell id="spxTNeBxtqFX0eM1KkgY-234" value="M" style="edgeLabel;resizable=0;html=1;align=left;verticalAlign=bottom;fontSize=20;spacingTop=5;" parent="spxTNeBxtqFX0eM1KkgY-233" connectable="0" vertex="1">
                    <mxGeometry x="-1" relative="1" as="geometry">
                        <mxPoint x="-52" y="19" as="offset"/>
                    </mxGeometry>
                </mxCell>
                <mxCell id="spxTNeBxtqFX0eM1KkgY-235" value="" style="endArrow=classic;html=1;rounded=0;fontSize=20;entryX=1;entryY=0.5;entryDx=0;entryDy=0;spacingTop=5;" parent="1" target="spxTNeBxtqFX0eM1KkgY-232" edge="1">
                    <mxGeometry relative="1" as="geometry">
                        <mxPoint x="260" y="1320" as="sourcePoint"/>
                        <mxPoint x="-607.25" y="880" as="targetPoint"/>
                        <Array as="points"/>
                    </mxGeometry>
                </mxCell>
                <mxCell id="spxTNeBxtqFX0eM1KkgY-236" value="M" style="edgeLabel;resizable=0;html=1;align=left;verticalAlign=bottom;fontSize=20;spacingTop=5;" parent="spxTNeBxtqFX0eM1KkgY-235" connectable="0" vertex="1">
                    <mxGeometry x="-1" relative="1" as="geometry">
                        <mxPoint x="-60" y="-370" as="offset"/>
                    </mxGeometry>
                </mxCell>
                <mxCell id="spxTNeBxtqFX0eM1KkgY-249" value="" style="endArrow=classic;html=1;rounded=0;fontSize=20;fontColor=#000000;exitX=0;exitY=1;exitDx=0;exitDy=0;spacingTop=5;entryX=1;entryY=0;entryDx=0;entryDy=0;" parent="1" source="spxTNeBxtqFX0eM1KkgY-40" target="spxTNeBxtqFX0eM1KkgY-62" edge="1">
                    <mxGeometry relative="1" as="geometry">
                        <mxPoint x="621" y="535" as="sourcePoint"/>
                        <mxPoint x="640" y="1090" as="targetPoint"/>
                        <Array as="points"/>
                    </mxGeometry>
                </mxCell>
                <mxCell id="spxTNeBxtqFX0eM1KkgY-250" value="1" style="edgeLabel;resizable=0;html=1;align=left;verticalAlign=bottom;labelBorderColor=none;strokeWidth=1;fontSize=20;fontColor=#000000;spacingTop=5;" parent="spxTNeBxtqFX0eM1KkgY-249" connectable="0" vertex="1">
                    <mxGeometry x="-1" relative="1" as="geometry">
                        <mxPoint x="-17" y="50" as="offset"/>
                    </mxGeometry>
                </mxCell>
                <mxCell id="spxTNeBxtqFX0eM1KkgY-266" value="&lt;font style=&quot;font-size: 18px;&quot;&gt;HAS&lt;/font&gt;" style="rhombus;whiteSpace=wrap;html=1;" parent="1" vertex="1">
                    <mxGeometry x="-790" y="862.5" width="90" height="87.5" as="geometry"/>
                </mxCell>
                <mxCell id="spxTNeBxtqFX0eM1KkgY-269" value="&lt;font style=&quot;font-size: 20px;&quot;&gt;1&lt;/font&gt;" style="edgeLabel;resizable=0;html=1;align=left;verticalAlign=bottom;labelBorderColor=none;strokeWidth=1;fontSize=20;fontColor=#000000;spacingTop=5;" parent="1" connectable="0" vertex="1">
                    <mxGeometry x="930" y="690" as="geometry">
                        <mxPoint x="245" y="-348" as="offset"/>
                    </mxGeometry>
                </mxCell>
                <mxCell id="spxTNeBxtqFX0eM1KkgY-271" style="edgeStyle=orthogonalEdgeStyle;rounded=0;orthogonalLoop=1;jettySize=auto;html=1;exitX=0;exitY=1;exitDx=0;exitDy=0;entryX=0.68;entryY=1.045;entryDx=0;entryDy=0;entryPerimeter=0;fontSize=20;spacingTop=5;" parent="1" source="spxTNeBxtqFX0eM1KkgY-273" edge="1">
                    <mxGeometry relative="1" as="geometry">
                        <mxPoint x="1077.3999999999996" y="323.1500000000001" as="targetPoint"/>
                    </mxGeometry>
                </mxCell>
                <mxCell id="spxTNeBxtqFX0eM1KkgY-273" value="Reply" style="rhombus;whiteSpace=wrap;html=1;labelBorderColor=none;strokeWidth=1;fontSize=20;fontColor=#000000;spacingTop=5;" parent="1" vertex="1">
                    <mxGeometry x="1170" y="330" width="110" height="90" as="geometry"/>
                </mxCell>
                <mxCell id="spxTNeBxtqFX0eM1KkgY-274" value="&lt;font style=&quot;font-size: 20px;&quot;&gt;1&lt;/font&gt;" style="edgeLabel;resizable=0;html=1;align=left;verticalAlign=bottom;labelBorderColor=none;strokeWidth=1;fontSize=20;fontColor=#000000;spacingTop=5;" parent="1" connectable="0" vertex="1">
                    <mxGeometry x="425.5" y="610" as="geometry">
                        <mxPoint x="245" y="-348" as="offset"/>
                    </mxGeometry>
                </mxCell>
                <mxCell id="spxTNeBxtqFX0eM1KkgY-275" value="M" style="edgeLabel;resizable=0;html=1;align=left;verticalAlign=bottom;labelBorderColor=none;strokeWidth=1;fontSize=20;fontColor=#000000;spacingTop=5;" parent="1" connectable="0" vertex="1">
                    <mxGeometry x="950" y="370" as="geometry">
                        <mxPoint x="200" y="76" as="offset"/>
                    </mxGeometry>
                </mxCell>
                <mxCell id="2" value="&lt;font style=&quot;font-size: 20px;&quot;&gt;M&lt;/font&gt;" style="edgeLabel;resizable=0;html=1;align=left;verticalAlign=bottom;labelBorderColor=none;strokeWidth=1;fontSize=20;fontColor=#000000;spacingTop=5;" parent="1" connectable="0" vertex="1">
                    <mxGeometry x="466.00000000000045" y="610" as="geometry">
                        <mxPoint x="-9" y="9" as="offset"/>
                    </mxGeometry>
                </mxCell>
                <mxCell id="3" value="READ" style="rhombus;whiteSpace=wrap;html=1;labelBorderColor=none;strokeWidth=1;fontSize=20;fontColor=#000000;spacingTop=5;" parent="1" vertex="1">
                    <mxGeometry x="416" y="480" width="100" height="100" as="geometry"/>
                </mxCell>
                <mxCell id="4" value="" style="endArrow=classic;html=1;rounded=0;fontSize=20;fontColor=#000000;exitX=1;exitY=1;exitDx=0;exitDy=0;entryX=0.25;entryY=0;entryDx=0;entryDy=0;spacingTop=5;" parent="1" source="3" target="spxTNeBxtqFX0eM1KkgY-53" edge="1">
                    <mxGeometry relative="1" as="geometry">
                        <mxPoint x="596" y="580" as="sourcePoint"/>
                        <mxPoint x="481.4245000000001" y="1097.6599999999999" as="targetPoint"/>
                        <Array as="points">
                            <mxPoint x="586" y="830"/>
                        </Array>
                    </mxGeometry>
                </mxCell>
                <mxCell id="5" value="M" style="edgeLabel;resizable=0;html=1;align=left;verticalAlign=bottom;labelBorderColor=none;strokeWidth=1;fontSize=20;fontColor=#000000;spacingTop=5;" parent="4" connectable="0" vertex="1">
                    <mxGeometry x="-1" relative="1" as="geometry">
                        <mxPoint x="-60" y="-135" as="offset"/>
                    </mxGeometry>
                </mxCell>
                <mxCell id="6" value="" style="shape=link;html=1;rounded=0;fontSize=20;fontColor=#000000;entryX=1;entryY=1;entryDx=0;entryDy=0;exitX=0.346;exitY=0.092;exitDx=0;exitDy=0;exitPerimeter=0;spacingTop=5;" parent="1" source="3" edge="1">
                    <mxGeometry width="100" relative="1" as="geometry">
                        <mxPoint x="456" y="450" as="sourcePoint"/>
                        <mxPoint x="370.00000000000045" y="319.9999999999998" as="targetPoint"/>
                        <Array as="points"/>
                    </mxGeometry>
                </mxCell>
                <mxCell id="8" style="edgeStyle=none;html=1;exitX=0;exitY=1;exitDx=0;exitDy=0;entryX=1;entryY=0;entryDx=0;entryDy=0;" parent="1" source="7" target="spxTNeBxtqFX0eM1KkgY-89" edge="1">
                    <mxGeometry relative="1" as="geometry">
                        <mxPoint x="-304.5625" y="1356.2500000000005" as="targetPoint"/>
                    </mxGeometry>
                </mxCell>
                <mxCell id="7" value="&lt;font style=&quot;font-size: 18px&quot;&gt;Start Date&lt;/font&gt;" style="ellipse;whiteSpace=wrap;html=1;" parent="1" vertex="1">
                    <mxGeometry x="-240" y="1380" width="120" height="80" as="geometry"/>
                </mxCell>
                <mxCell id="9" style="edgeStyle=none;html=1;exitX=0;exitY=1;exitDx=0;exitDy=0;entryX=1;entryY=0;entryDx=0;entryDy=0;" parent="1" source="10" target="spxTNeBxtqFX0eM1KkgY-232" edge="1">
                    <mxGeometry relative="1" as="geometry">
                        <mxPoint x="208.99750000000006" y="876.2500000000005" as="targetPoint"/>
                    </mxGeometry>
                </mxCell>
                <mxCell id="10" value="&lt;font style=&quot;font-size: 18px&quot;&gt;Date&lt;/font&gt;" style="ellipse;whiteSpace=wrap;html=1;" parent="1" vertex="1">
                    <mxGeometry x="210.00000000000006" y="790" width="120" height="80" as="geometry"/>
                </mxCell>
                <mxCell id="11" style="edgeStyle=none;html=1;exitX=0;exitY=1;exitDx=0;exitDy=0;entryX=0.5;entryY=0;entryDx=0;entryDy=0;" parent="1" source="12" target="spxTNeBxtqFX0eM1KkgY-232" edge="1">
                    <mxGeometry relative="1" as="geometry">
                        <mxPoint x="149" y="826.25" as="targetPoint"/>
                    </mxGeometry>
                </mxCell>
                <mxCell id="12" value="&lt;font style=&quot;font-size: 18px&quot;&gt;Score&lt;/font&gt;" style="ellipse;whiteSpace=wrap;html=1;" parent="1" vertex="1">
                    <mxGeometry x="173.56" y="690" width="120" height="80" as="geometry"/>
                </mxCell>
                <mxCell id="14" style="edgeStyle=none;html=1;exitX=1;exitY=0.5;exitDx=0;exitDy=0;entryX=0;entryY=0.25;entryDx=0;entryDy=0;" parent="1" source="13" target="spxTNeBxtqFX0eM1KkgY-54" edge="1">
                    <mxGeometry relative="1" as="geometry"/>
                </mxCell>
                <mxCell id="15" style="edgeStyle=none;html=1;exitX=0;exitY=0;exitDx=0;exitDy=0;" parent="1" source="13" edge="1">
                    <mxGeometry relative="1" as="geometry">
                        <mxPoint x="-380" y="750" as="targetPoint"/>
                    </mxGeometry>
                </mxCell>
                <mxCell id="13" value="CREATE" style="rhombus;whiteSpace=wrap;html=1;labelBorderColor=none;strokeWidth=1;fontSize=20;fontColor=#000000;spacingTop=5;" parent="1" vertex="1">
                    <mxGeometry x="20" y="1430" width="100" height="100" as="geometry"/>
                </mxCell>
                <mxCell id="16" value="M" style="edgeLabel;resizable=0;html=1;align=left;verticalAlign=bottom;fontSize=20;spacingTop=5;" parent="1" connectable="0" vertex="1">
                    <mxGeometry x="260" y="1032.5000000000005" as="geometry">
                        <mxPoint x="-247" y="372" as="offset"/>
                    </mxGeometry>
                </mxCell>
                <mxCell id="17" value="1" style="edgeLabel;resizable=0;html=1;align=left;verticalAlign=bottom;fontSize=20;spacingTop=5;" parent="1" connectable="0" vertex="1">
                    <mxGeometry x="-660" y="970.0000000000005" as="geometry">
                        <mxPoint x="792" y="495" as="offset"/>
                    </mxGeometry>
                </mxCell>
                <mxCell id="waV7JCgj-qbsBEwUhyzx-18" value="" style="endArrow=none;html=1;rounded=0;entryX=1;entryY=1;entryDx=0;entryDy=0;exitX=0;exitY=0;exitDx=0;exitDy=0;" parent="1" source="spxTNeBxtqFX0eM1KkgY-54" target="spxTNeBxtqFX0eM1KkgY-59" edge="1">
                    <mxGeometry width="50" height="50" relative="1" as="geometry">
                        <mxPoint x="499.99999999999955" y="1250" as="sourcePoint"/>
                        <mxPoint x="541.7499999999995" y="1200" as="targetPoint"/>
                    </mxGeometry>
                </mxCell>
                <mxCell id="waV7JCgj-qbsBEwUhyzx-19" value="" style="endArrow=none;html=1;rounded=0;exitX=1;exitY=0;exitDx=0;exitDy=0;entryX=0.073;entryY=0.736;entryDx=0;entryDy=0;entryPerimeter=0;" parent="1" source="spxTNeBxtqFX0eM1KkgY-53" target="spxTNeBxtqFX0eM1KkgY-59" edge="1">
                    <mxGeometry width="50" height="50" relative="1" as="geometry">
                        <mxPoint x="509.99999999999955" y="1260" as="sourcePoint"/>
                        <mxPoint x="470" y="1300" as="targetPoint"/>
                    </mxGeometry>
                </mxCell>
                <mxCell id="waV7JCgj-qbsBEwUhyzx-22" value="Choices" style="rounded=0;whiteSpace=wrap;html=1;fillColor=#f5f5f5;fontColor=#333333;strokeColor=#666666;absoluteArcSize=0;double=1;snapToPoint=1;fixDash=0;autosize=0;container=0;dropTarget=0;collapsible=0;backgroundOutline=1;comic=0;treeMoving=0;treeFolding=0;perimeterSpacing=0;strokeWidth=1;fontSize=20;spacingTop=5;" parent="1" vertex="1">
                    <mxGeometry x="-848.63" y="1032.5" width="120" height="60" as="geometry"/>
                </mxCell>
                <mxCell id="waV7JCgj-qbsBEwUhyzx-36" value="HAS" style="rhombus;whiteSpace=wrap;html=1;fontSize=18;" parent="1" vertex="1">
                    <mxGeometry x="-612.25" y="1666.77" width="70" height="70" as="geometry"/>
                </mxCell>
                <mxCell id="waV7JCgj-qbsBEwUhyzx-37" value="(0,M)" style="endArrow=none;html=1;rounded=0;fontSize=18;entryX=0.644;entryY=1.031;entryDx=0;entryDy=0;entryPerimeter=0;" parent="1" target="spxTNeBxtqFX0eM1KkgY-25" edge="1">
                    <mxGeometry x="-0.2313" y="-43" width="50" height="50" relative="1" as="geometry">
                        <mxPoint x="-623" y="420" as="sourcePoint"/>
                        <mxPoint x="-600" y="630" as="targetPoint"/>
                        <mxPoint as="offset"/>
                    </mxGeometry>
                </mxCell>
                <mxCell id="waV7JCgj-qbsBEwUhyzx-45" value="" style="endArrow=none;html=1;rounded=0;labelBackgroundColor=#FFFFFF;fontSize=18;fontColor=#000000;entryX=0;entryY=0.5;entryDx=0;entryDy=0;exitX=1;exitY=0;exitDx=0;exitDy=0;" parent="1" source="spxTNeBxtqFX0eM1KkgY-183" target="spxTNeBxtqFX0eM1KkgY-1" edge="1">
                    <mxGeometry width="50" height="50" relative="1" as="geometry">
                        <mxPoint x="290" y="630" as="sourcePoint"/>
                        <mxPoint x="340" y="580" as="targetPoint"/>
                    </mxGeometry>
                </mxCell>
                <mxCell id="waV7JCgj-qbsBEwUhyzx-46" value="" style="endArrow=none;html=1;rounded=0;labelBackgroundColor=#FFFFFF;fontSize=18;fontColor=#000000;exitX=1;exitY=0;exitDx=0;exitDy=0;entryX=0.5;entryY=1;entryDx=0;entryDy=0;" parent="1" source="spxTNeBxtqFX0eM1KkgY-78" target="spxTNeBxtqFX0eM1KkgY-183" edge="1">
                    <mxGeometry width="50" height="50" relative="1" as="geometry">
                        <mxPoint x="-400" y="1310" as="sourcePoint"/>
                        <mxPoint x="-350" y="1260" as="targetPoint"/>
                        <Array as="points">
                            <mxPoint x="-30" y="1200"/>
                        </Array>
                    </mxGeometry>
                </mxCell>
                <mxCell id="waV7JCgj-qbsBEwUhyzx-47" value="" style="endArrow=none;html=1;rounded=0;labelBackgroundColor=#FFFFFF;fontSize=18;fontColor=#000000;entryX=0;entryY=1;entryDx=0;entryDy=0;exitX=1;exitY=0;exitDx=0;exitDy=0;" parent="1" source="spxTNeBxtqFX0eM1KkgY-181" target="spxTNeBxtqFX0eM1KkgY-183" edge="1">
                    <mxGeometry width="50" height="50" relative="1" as="geometry">
                        <mxPoint x="-400" y="800" as="sourcePoint"/>
                        <mxPoint x="-350" y="750" as="targetPoint"/>
                    </mxGeometry>
                </mxCell>
                <mxCell id="waV7JCgj-qbsBEwUhyzx-48" value="HAS" style="rhombus;whiteSpace=wrap;html=1;fontSize=18;fontColor=#000000;" parent="1" vertex="1">
                    <mxGeometry x="-780" y="876.25" width="70" height="60" as="geometry"/>
                </mxCell>
                <mxCell id="waV7JCgj-qbsBEwUhyzx-52" value="" style="shape=link;html=1;rounded=0;labelBackgroundColor=#FFFFFF;fontSize=18;fontColor=#000000;entryX=0.5;entryY=1;entryDx=0;entryDy=0;exitX=1;exitY=0;exitDx=0;exitDy=0;" parent="1" source="spxTNeBxtqFX0eM1KkgY-59" target="spxTNeBxtqFX0eM1KkgY-62" edge="1">
                    <mxGeometry width="100" relative="1" as="geometry">
                        <mxPoint x="570" y="1520" as="sourcePoint"/>
                        <mxPoint x="670" y="1520" as="targetPoint"/>
                    </mxGeometry>
                </mxCell>
                <mxCell id="XJENGt0yaM8Gy9nenZl1-17" value="" style="shape=link;html=1;rounded=0;labelBackgroundColor=#FFFFFF;fontSize=18;fontColor=#000000;entryX=0;entryY=0;entryDx=0;entryDy=0;exitX=0.5;exitY=1;exitDx=0;exitDy=0;" parent="1" source="spxTNeBxtqFX0eM1KkgY-170" target="spxTNeBxtqFX0eM1KkgY-183" edge="1">
                    <mxGeometry width="100" relative="1" as="geometry">
                        <mxPoint x="-230" y="710" as="sourcePoint"/>
                        <mxPoint x="-130" y="710" as="targetPoint"/>
                    </mxGeometry>
                </mxCell>
                <mxCell id="VzhIOhWXZpQaqpB6hcJ--17" value="&lt;font style=&quot;font-size: 20px;&quot;&gt;TOPIC&lt;/font&gt;" style="rounded=0;whiteSpace=wrap;html=1;fontSize=20;spacingTop=5;" parent="1" vertex="1">
                    <mxGeometry x="-1097.25" y="1020" width="120" height="50" as="geometry"/>
                </mxCell>
                <mxCell id="VzhIOhWXZpQaqpB6hcJ--24" value="LESSON" style="rounded=0;whiteSpace=wrap;html=1;fontSize=20;fontColor=#000000;" parent="1" vertex="1">
                    <mxGeometry x="-406.5" y="1037.5" width="120" height="40" as="geometry"/>
                </mxCell>
                <mxCell id="-YodF9tBBQtxqc8wtTt2-20" value="(1,M)" style="endArrow=none;html=1;rounded=0;labelBackgroundColor=#FFFFFF;fontSize=20;fontColor=#000000;exitX=0;exitY=0;exitDx=0;exitDy=0;entryX=0.802;entryY=0.668;entryDx=0;entryDy=0;entryPerimeter=0;" parent="1" source="spxTNeBxtqFX0eM1KkgY-181" target="spxTNeBxtqFX0eM1KkgY-163" edge="1">
                    <mxGeometry x="0.5111" y="-28" width="50" height="50" relative="1" as="geometry">
                        <mxPoint x="-530" y="540" as="sourcePoint"/>
                        <mxPoint x="-480" y="490" as="targetPoint"/>
                        <mxPoint as="offset"/>
                    </mxGeometry>
                </mxCell>
                <mxCell id="-YodF9tBBQtxqc8wtTt2-21" value="(1,M)" style="endArrow=none;html=1;rounded=0;labelBackgroundColor=#FFFFFF;fontSize=20;fontColor=#000000;exitX=0.861;exitY=0.063;exitDx=0;exitDy=0;exitPerimeter=0;entryX=0;entryY=1;entryDx=0;entryDy=0;" parent="1" source="spxTNeBxtqFX0eM1KkgY-182" target="spxTNeBxtqFX0eM1KkgY-163" edge="1">
                    <mxGeometry x="0.0087" y="40" width="50" height="50" relative="1" as="geometry">
                        <mxPoint x="-530" y="540" as="sourcePoint"/>
                        <mxPoint x="-480" y="490" as="targetPoint"/>
                        <mxPoint y="-1" as="offset"/>
                    </mxGeometry>
                </mxCell>
                <mxCell id="QENp7jyKM79AXcp5-LZs-18" value="HAS" style="rhombus;whiteSpace=wrap;html=1;fontSize=20;fontColor=#000000;" parent="1" vertex="1">
                    <mxGeometry x="220" y="150" width="80" height="80" as="geometry"/>
                </mxCell>
                <mxCell id="QENp7jyKM79AXcp5-LZs-19" value="M" style="endArrow=none;html=1;rounded=0;labelBackgroundColor=#FFFFFF;fontSize=20;fontColor=#000000;entryX=0;entryY=0;entryDx=0;entryDy=0;exitX=0.5;exitY=1;exitDx=0;exitDy=0;" parent="1" source="QENp7jyKM79AXcp5-LZs-18" target="spxTNeBxtqFX0eM1KkgY-1" edge="1">
                    <mxGeometry x="-0.222" y="18" width="50" height="50" relative="1" as="geometry">
                        <mxPoint x="240" y="320" as="sourcePoint"/>
                        <mxPoint x="290" y="270" as="targetPoint"/>
                        <mxPoint x="1" as="offset"/>
                    </mxGeometry>
                </mxCell>
                <mxCell id="QENp7jyKM79AXcp5-LZs-20" value="TOPIC" style="rounded=0;whiteSpace=wrap;html=1;fontSize=20;fontColor=#000000;" parent="1" vertex="1">
                    <mxGeometry x="80" y="40" width="120" height="60" as="geometry"/>
                </mxCell>
                <mxCell id="QENp7jyKM79AXcp5-LZs-21" value="M" style="endArrow=none;html=1;rounded=0;labelBackgroundColor=#FFFFFF;fontSize=20;fontColor=#000000;entryX=0.5;entryY=0;entryDx=0;entryDy=0;exitX=1;exitY=1;exitDx=0;exitDy=0;" parent="1" source="QENp7jyKM79AXcp5-LZs-20" target="QENp7jyKM79AXcp5-LZs-18" edge="1">
                    <mxGeometry x="-0.3115" y="-17" width="50" height="50" relative="1" as="geometry">
                        <mxPoint x="240" y="320" as="sourcePoint"/>
                        <mxPoint x="290" y="270" as="targetPoint"/>
                        <mxPoint as="offset"/>
                    </mxGeometry>
                </mxCell>
                <mxCell id="-9e8HytcveQ4ssiV0BQ8-29" value="" style="endArrow=none;html=1;rounded=0;labelBackgroundColor=#FFFFFF;fontSize=20;fontColor=#000000;entryX=0;entryY=0;entryDx=0;entryDy=0;startArrow=none;" parent="1" source="-9e8HytcveQ4ssiV0BQ8-28" target="spxTNeBxtqFX0eM1KkgY-89" edge="1">
                    <mxGeometry width="50" height="50" relative="1" as="geometry">
                        <mxPoint x="-410" y="1400" as="sourcePoint"/>
                        <mxPoint x="-370" y="1320" as="targetPoint"/>
                    </mxGeometry>
                </mxCell>
                <mxCell id="-9e8HytcveQ4ssiV0BQ8-31" value="BODY" style="ellipse;whiteSpace=wrap;html=1;fontSize=20;fontColor=#000000;" parent="1" vertex="1">
                    <mxGeometry x="-620" y="1310" width="120" height="80" as="geometry"/>
                </mxCell>
                <mxCell id="-9e8HytcveQ4ssiV0BQ8-32" value="RATING" style="ellipse;whiteSpace=wrap;html=1;fontSize=20;fontColor=#000000;" parent="1" vertex="1">
                    <mxGeometry x="-358.62" y="1300" width="120" height="80" as="geometry"/>
                </mxCell>
                <mxCell id="-9e8HytcveQ4ssiV0BQ8-33" value="" style="endArrow=none;html=1;rounded=0;labelBackgroundColor=#FFFFFF;fontSize=20;fontColor=#000000;entryX=0;entryY=1;entryDx=0;entryDy=0;exitX=0.922;exitY=0.683;exitDx=0;exitDy=0;exitPerimeter=0;" parent="1" source="-9e8HytcveQ4ssiV0BQ8-28" target="-9e8HytcveQ4ssiV0BQ8-32" edge="1">
                    <mxGeometry width="50" height="50" relative="1" as="geometry">
                        <mxPoint x="-420" y="1370" as="sourcePoint"/>
                        <mxPoint x="-370" y="1320" as="targetPoint"/>
                    </mxGeometry>
                </mxCell>
                <mxCell id="-9e8HytcveQ4ssiV0BQ8-28" value="&lt;font style=&quot;font-size: 18px&quot;&gt;REVIEW&lt;/font&gt;" style="ellipse;whiteSpace=wrap;html=1;" parent="1" vertex="1">
                    <mxGeometry x="-492.25" y="1360" width="120" height="80" as="geometry"/>
                </mxCell>
                <mxCell id="-9e8HytcveQ4ssiV0BQ8-35" value="" style="endArrow=none;html=1;rounded=0;labelBackgroundColor=#FFFFFF;fontSize=20;fontColor=#000000;entryX=1;entryY=0.5;entryDx=0;entryDy=0;" parent="1" target="-9e8HytcveQ4ssiV0BQ8-31" edge="1">
                    <mxGeometry width="50" height="50" relative="1" as="geometry">
                        <mxPoint x="-490" y="1390" as="sourcePoint"/>
                        <mxPoint x="-370" y="1320" as="targetPoint"/>
                    </mxGeometry>
                </mxCell>
                <mxCell id="xQ3nKdPMgCHG-9nWP0s3-18" value="HAS" style="rhombus;whiteSpace=wrap;html=1;fontSize=20;spacingTop=5;" parent="1" vertex="1">
                    <mxGeometry x="-1097.25" y="1200" width="100" height="100" as="geometry"/>
                </mxCell>
                <mxCell id="xQ3nKdPMgCHG-9nWP0s3-19" value="M" style="endArrow=none;html=1;rounded=0;labelBackgroundColor=#FFFFFF;fontSize=20;fontColor=#000000;exitX=0.5;exitY=0;exitDx=0;exitDy=0;entryX=0.5;entryY=1;entryDx=0;entryDy=0;" parent="1" source="xQ3nKdPMgCHG-9nWP0s3-18" target="VzhIOhWXZpQaqpB6hcJ--17" edge="1">
                    <mxGeometry x="0.2556" y="-21" width="50" height="50" relative="1" as="geometry">
                        <mxPoint x="-330" y="1130" as="sourcePoint"/>
                        <mxPoint x="-280" y="1080" as="targetPoint"/>
                        <mxPoint as="offset"/>
                    </mxGeometry>
                </mxCell>
                <mxCell id="xQ3nKdPMgCHG-9nWP0s3-20" value="1" style="endArrow=none;html=1;rounded=0;labelBackgroundColor=#FFFFFF;fontSize=20;fontColor=#000000;exitX=0.5;exitY=0;exitDx=0;exitDy=0;entryX=0.5;entryY=1;entryDx=0;entryDy=0;" parent="1" source="spxTNeBxtqFX0eM1KkgY-78" target="xQ3nKdPMgCHG-9nWP0s3-18" edge="1">
                    <mxGeometry x="0.1388" y="-15" width="50" height="50" relative="1" as="geometry">
                        <mxPoint x="-330" y="1130" as="sourcePoint"/>
                        <mxPoint x="-280" y="1080" as="targetPoint"/>
                        <mxPoint as="offset"/>
                    </mxGeometry>
                </mxCell>
                <mxCell id="xQ3nKdPMgCHG-9nWP0s3-25" value="1" style="endArrow=none;html=1;rounded=0;labelBackgroundColor=#FFFFFF;fontSize=20;fontColor=#000000;exitX=0.75;exitY=0;exitDx=0;exitDy=0;entryX=0;entryY=1;entryDx=0;entryDy=0;" parent="1" source="spxTNeBxtqFX0eM1KkgY-78" target="xQ3nKdPMgCHG-9nWP0s3-26" edge="1">
                    <mxGeometry x="0.821" y="19" width="50" height="50" relative="1" as="geometry">
                        <mxPoint x="-330" y="1130" as="sourcePoint"/>
                        <mxPoint x="-830" y="1230" as="targetPoint"/>
                        <mxPoint x="-1" as="offset"/>
                    </mxGeometry>
                </mxCell>
                <mxCell id="xQ3nKdPMgCHG-9nWP0s3-26" value="" style="rhombus;whiteSpace=wrap;html=1;fontSize=20;fontColor=#000000;" parent="1" vertex="1">
                    <mxGeometry x="-820" y="1130" width="129.25" height="120" as="geometry"/>
                </mxCell>
                <mxCell id="xQ3nKdPMgCHG-9nWP0s3-27" value="HAS" style="rhombus;whiteSpace=wrap;html=1;fontSize=20;fontColor=#000000;" parent="1" vertex="1">
                    <mxGeometry x="-801.5" y="1145" width="92.25" height="90" as="geometry"/>
                </mxCell>
                <mxCell id="AkPBZ_bTwJNi93K6WT9O-17" value="&lt;font style=&quot;font-size: 18px;&quot;&gt;M&lt;/font&gt;" style="shape=link;html=1;rounded=0;exitX=1;exitY=0;exitDx=0;exitDy=0;entryX=0;entryY=0.5;entryDx=0;entryDy=0;" parent="1" source="xQ3nKdPMgCHG-9nWP0s3-26" target="VzhIOhWXZpQaqpB6hcJ--24" edge="1">
                    <mxGeometry x="-0.8295" y="-20" width="100" relative="1" as="geometry">
                        <mxPoint x="-370" y="1160" as="sourcePoint"/>
                        <mxPoint x="-270" y="1160" as="targetPoint"/>
                        <mxPoint x="-1" as="offset"/>
                    </mxGeometry>
                </mxCell>
            </root>
        </mxGraphModel>
    </diagram>
    <diagram id="DUZ6kmplkwK4OsiUKGi5" name="Entities with attributes">
        <mxGraphModel dx="2458" dy="361" grid="1" gridSize="10" guides="1" tooltips="1" connect="1" arrows="1" fold="1" page="1" pageScale="1" pageWidth="827" pageHeight="1169" math="0" shadow="0">
            <root>
                <mxCell id="0"/>
                <mxCell id="1" parent="0"/>
                <mxCell id="vplgkhuqn7GU1yu1RdBn-1" value="&lt;font style=&quot;font-size: 20px;&quot;&gt;Article&lt;/font&gt;" style="rounded=0;whiteSpace=wrap;html=1;fontSize=20;spacingTop=5;" parent="1" vertex="1">
                    <mxGeometry x="-121" y="480" width="121" height="70" as="geometry"/>
                </mxCell>
                <mxCell id="vplgkhuqn7GU1yu1RdBn-2" value="&lt;font style=&quot;font-size: 20px;&quot;&gt;BODY&lt;/font&gt;" style="ellipse;whiteSpace=wrap;html=1;fontSize=20;spacingTop=5;" parent="1" vertex="1">
                    <mxGeometry x="77.25" y="360" width="81" height="40" as="geometry"/>
                </mxCell>
                <mxCell id="vplgkhuqn7GU1yu1RdBn-5" value="" style="endArrow=classic;html=1;rounded=0;fontSize=20;fontColor=#000000;entryX=0.611;entryY=1.035;entryDx=0;entryDy=0;entryPerimeter=0;spacingTop=5;" parent="1" source="vplgkhuqn7GU1yu1RdBn-1" target="vplgkhuqn7GU1yu1RdBn-2" edge="1">
                    <mxGeometry width="50" height="50" relative="1" as="geometry">
                        <mxPoint x="390" y="310" as="sourcePoint"/>
                        <mxPoint x="440" y="260" as="targetPoint"/>
                    </mxGeometry>
                </mxCell>
                <mxCell id="vplgkhuqn7GU1yu1RdBn-6" value="" style="endArrow=classic;html=1;rounded=0;fontSize=20;fontColor=#000000;exitX=0;exitY=0.25;exitDx=0;exitDy=0;spacingTop=5;" parent="1" source="vplgkhuqn7GU1yu1RdBn-1" target="vplgkhuqn7GU1yu1RdBn-7" edge="1">
                    <mxGeometry width="50" height="50" relative="1" as="geometry">
                        <mxPoint x="390" y="310" as="sourcePoint"/>
                        <mxPoint x="440" y="260" as="targetPoint"/>
                    </mxGeometry>
                </mxCell>
                <mxCell id="vplgkhuqn7GU1yu1RdBn-7" value="LIKES" style="ellipse;whiteSpace=wrap;html=1;strokeWidth=1;fontSize=20;fontColor=#000000;direction=west;spacingTop=5;" parent="1" vertex="1">
                    <mxGeometry x="-291.38" y="435" width="90" height="45" as="geometry"/>
                </mxCell>
                <mxCell id="vplgkhuqn7GU1yu1RdBn-8" value="&lt;span style=&quot;font-size: 20px;&quot;&gt;DISLIKES&lt;/span&gt;" style="ellipse;whiteSpace=wrap;html=1;fontSize=20;spacingTop=5;" parent="1" vertex="1">
                    <mxGeometry x="-204.5" y="345" width="104.5" height="40" as="geometry"/>
                </mxCell>
                <mxCell id="vplgkhuqn7GU1yu1RdBn-9" value="" style="endArrow=classic;html=1;rounded=0;fontSize=20;fontColor=#000000;entryX=0.5;entryY=1;entryDx=0;entryDy=0;spacingTop=5;" parent="1" source="vplgkhuqn7GU1yu1RdBn-1" target="vplgkhuqn7GU1yu1RdBn-243" edge="1">
                    <mxGeometry width="50" height="50" relative="1" as="geometry">
                        <mxPoint x="390" y="310" as="sourcePoint"/>
                        <mxPoint x="282.4339038596695" y="140.96058831365463" as="targetPoint"/>
                    </mxGeometry>
                </mxCell>
                <mxCell id="vplgkhuqn7GU1yu1RdBn-10" value="" style="endArrow=classic;html=1;rounded=0;fontSize=20;fontColor=#000000;entryX=0.743;entryY=1.01;entryDx=0;entryDy=0;entryPerimeter=0;exitX=0;exitY=0;exitDx=0;exitDy=0;spacingTop=5;" parent="1" source="vplgkhuqn7GU1yu1RdBn-1" target="vplgkhuqn7GU1yu1RdBn-8" edge="1">
                    <mxGeometry width="50" height="50" relative="1" as="geometry">
                        <mxPoint x="390" y="310" as="sourcePoint"/>
                        <mxPoint x="440" y="260" as="targetPoint"/>
                    </mxGeometry>
                </mxCell>
                <mxCell id="vplgkhuqn7GU1yu1RdBn-25" value="&lt;font style=&quot;font-size: 20px;&quot;&gt;TOPIC&lt;/font&gt;" style="rounded=0;whiteSpace=wrap;html=1;fontSize=20;spacingTop=5;" parent="1" vertex="1">
                    <mxGeometry x="281.75" y="1817.5" width="130" height="70" as="geometry"/>
                </mxCell>
                <mxCell id="vplgkhuqn7GU1yu1RdBn-26" value="&lt;span style=&quot;font-size: 20px;&quot;&gt;NAME&lt;/span&gt;" style="ellipse;whiteSpace=wrap;html=1;fontSize=20;strokeWidth=1;spacingTop=5;" parent="1" vertex="1">
                    <mxGeometry x="499" y="1750" width="90" height="50" as="geometry"/>
                </mxCell>
                <mxCell id="vplgkhuqn7GU1yu1RdBn-27" value="" style="endArrow=classic;html=1;rounded=0;fontSize=20;entryX=0.269;entryY=1.005;entryDx=0;entryDy=0;entryPerimeter=0;exitX=1;exitY=0;exitDx=0;exitDy=0;spacingTop=5;" parent="1" source="vplgkhuqn7GU1yu1RdBn-25" target="vplgkhuqn7GU1yu1RdBn-26" edge="1">
                    <mxGeometry width="50" height="50" relative="1" as="geometry">
                        <mxPoint x="1159" y="2395" as="sourcePoint"/>
                        <mxPoint x="1299.251262658471" y="2339.142135623731" as="targetPoint"/>
                        <Array as="points"/>
                    </mxGeometry>
                </mxCell>
                <mxCell id="vplgkhuqn7GU1yu1RdBn-28" value="" style="endArrow=classic;html=1;rounded=0;fontSize=20;entryX=0.5;entryY=1;entryDx=0;entryDy=0;exitX=0.75;exitY=0;exitDx=0;exitDy=0;spacingTop=5;startArrow=none;" parent="1" source="vplgkhuqn7GU1yu1RdBn-240" edge="1">
                    <mxGeometry width="50" height="50" relative="1" as="geometry">
                        <mxPoint x="1169" y="2405" as="sourcePoint"/>
                        <mxPoint x="401.75" y="1750" as="targetPoint"/>
                        <Array as="points"/>
                    </mxGeometry>
                </mxCell>
                <mxCell id="vplgkhuqn7GU1yu1RdBn-29" value="" style="endArrow=classic;html=1;rounded=0;fontSize=20;entryX=0.634;entryY=0.995;entryDx=0;entryDy=0;entryPerimeter=0;exitX=0.166;exitY=-0.017;exitDx=0;exitDy=0;exitPerimeter=0;spacingTop=5;" parent="1" source="vplgkhuqn7GU1yu1RdBn-25" edge="1">
                    <mxGeometry width="50" height="50" relative="1" as="geometry">
                        <mxPoint x="869" y="2310" as="sourcePoint"/>
                        <mxPoint x="177.78650000000016" y="1759.7499999999998" as="targetPoint"/>
                        <Array as="points"/>
                    </mxGeometry>
                </mxCell>
                <mxCell id="vplgkhuqn7GU1yu1RdBn-30" value="" style="endArrow=classic;html=1;rounded=0;fontSize=20;fontColor=#000000;entryX=0.629;entryY=1.02;entryDx=0;entryDy=0;entryPerimeter=0;exitX=0.5;exitY=0;exitDx=0;exitDy=0;spacingTop=5;startArrow=none;" parent="1" source="vplgkhuqn7GU1yu1RdBn-242" edge="1">
                    <mxGeometry width="50" height="50" relative="1" as="geometry">
                        <mxPoint x="899" y="2310" as="sourcePoint"/>
                        <mxPoint x="253.8510000000001" y="1720.9999999999998" as="targetPoint"/>
                    </mxGeometry>
                </mxCell>
                <mxCell id="vplgkhuqn7GU1yu1RdBn-32" value="&lt;font style=&quot;font-size: 20px;&quot;&gt;&lt;b&gt;ID&lt;/b&gt;&lt;/font&gt;" style="ellipse;whiteSpace=wrap;html=1;fontSize=20;labelBorderColor=none;fontStyle=4;spacingTop=5;" parent="1" vertex="1">
                    <mxGeometry x="115.5" y="1805" width="70" height="40" as="geometry"/>
                </mxCell>
                <mxCell id="vplgkhuqn7GU1yu1RdBn-33" value="" style="endArrow=classic;html=1;rounded=0;fontSize=20;entryX=1;entryY=0.5;entryDx=0;entryDy=0;exitX=0;exitY=0.25;exitDx=0;exitDy=0;spacingTop=5;" parent="1" source="vplgkhuqn7GU1yu1RdBn-25" target="vplgkhuqn7GU1yu1RdBn-32" edge="1">
                    <mxGeometry width="50" height="50" relative="1" as="geometry">
                        <mxPoint x="890.5799999999999" y="2323.81" as="sourcePoint"/>
                        <mxPoint x="787.126" y="2269.75" as="targetPoint"/>
                        <Array as="points"/>
                    </mxGeometry>
                </mxCell>
                <mxCell id="vplgkhuqn7GU1yu1RdBn-47" style="edgeStyle=none;html=1;exitX=0.75;exitY=1;exitDx=0;exitDy=0;entryX=0.5;entryY=0;entryDx=0;entryDy=0;fontSize=20;spacingTop=5;" parent="1" source="vplgkhuqn7GU1yu1RdBn-62" target="vplgkhuqn7GU1yu1RdBn-55" edge="1">
                    <mxGeometry relative="1" as="geometry"/>
                </mxCell>
                <mxCell id="vplgkhuqn7GU1yu1RdBn-48" style="edgeStyle=none;html=1;exitX=0;exitY=0.25;exitDx=0;exitDy=0;entryX=1;entryY=1;entryDx=0;entryDy=0;fontSize=20;spacingTop=5;" parent="1" source="vplgkhuqn7GU1yu1RdBn-62" target="vplgkhuqn7GU1yu1RdBn-58" edge="1">
                    <mxGeometry relative="1" as="geometry"/>
                </mxCell>
                <mxCell id="vplgkhuqn7GU1yu1RdBn-49" value="&lt;font style=&quot;font-size: 20px;&quot;&gt;FNAME&lt;br style=&quot;font-size: 20px;&quot;&gt;&lt;/font&gt;" style="ellipse;whiteSpace=wrap;html=1;fontSize=20;spacingTop=5;" parent="1" vertex="1">
                    <mxGeometry x="879" y="925" width="120" height="80" as="geometry"/>
                </mxCell>
                <mxCell id="vplgkhuqn7GU1yu1RdBn-50" value="&lt;font style=&quot;font-size: 20px;&quot;&gt;&lt;b style=&quot;font-size: 20px;&quot;&gt;&lt;u style=&quot;font-size: 20px;&quot;&gt;ID&lt;/u&gt;&lt;/b&gt;&lt;/font&gt;" style="ellipse;whiteSpace=wrap;html=1;fontSize=20;spacingTop=5;" parent="1" vertex="1">
                    <mxGeometry x="392.75" y="960" width="80" height="56.25" as="geometry"/>
                </mxCell>
                <mxCell id="vplgkhuqn7GU1yu1RdBn-51" value="" style="endArrow=classic;html=1;rounded=0;fontSize=20;spacingTop=5;" parent="1" target="vplgkhuqn7GU1yu1RdBn-49" edge="1">
                    <mxGeometry width="50" height="50" relative="1" as="geometry">
                        <mxPoint x="750" y="1040" as="sourcePoint"/>
                        <mxPoint x="552.75" y="1090" as="targetPoint"/>
                    </mxGeometry>
                </mxCell>
                <mxCell id="vplgkhuqn7GU1yu1RdBn-52" value="" style="endArrow=classic;html=1;rounded=0;fontSize=20;entryX=0.395;entryY=0.957;entryDx=0;entryDy=0;startArrow=none;entryPerimeter=0;spacingTop=5;" parent="1" source="vplgkhuqn7GU1yu1RdBn-62" target="vplgkhuqn7GU1yu1RdBn-50" edge="1">
                    <mxGeometry width="50" height="50" relative="1" as="geometry">
                        <mxPoint x="452.75" y="1100" as="sourcePoint"/>
                        <mxPoint x="422.87813104319" y="1064.5915578644035" as="targetPoint"/>
                    </mxGeometry>
                </mxCell>
                <mxCell id="vplgkhuqn7GU1yu1RdBn-53" value="&lt;span style=&quot;font-size: 20px;&quot;&gt;Student&amp;nbsp;&lt;br style=&quot;font-size: 20px;&quot;&gt;&lt;/span&gt;" style="rounded=0;whiteSpace=wrap;html=1;fontSize=20;spacingTop=5;" parent="1" vertex="1">
                    <mxGeometry x="235.5" y="1320" width="180" height="70" as="geometry"/>
                </mxCell>
                <mxCell id="vplgkhuqn7GU1yu1RdBn-54" value="&lt;span style=&quot;font-size: 20px;&quot;&gt;Instructor&amp;nbsp;&lt;/span&gt;&lt;span style=&quot;font-size: 20px;&quot;&gt;&lt;br style=&quot;font-size: 20px;&quot;&gt;&lt;/span&gt;" style="rounded=0;whiteSpace=wrap;html=1;fontSize=20;spacingTop=5;" parent="1" vertex="1">
                    <mxGeometry x="607" y="1475" width="180" height="70" as="geometry"/>
                </mxCell>
                <mxCell id="vplgkhuqn7GU1yu1RdBn-55" value="&lt;font style=&quot;font-size: 20px;&quot;&gt;isAdmin&lt;/font&gt;" style="ellipse;whiteSpace=wrap;html=1;fontSize=20;spacingTop=5;" parent="1" vertex="1">
                    <mxGeometry x="526.25" y="1240" width="110" height="65" as="geometry"/>
                </mxCell>
                <mxCell id="vplgkhuqn7GU1yu1RdBn-56" value="&lt;font style=&quot;font-size: 20px;&quot;&gt;RATING&lt;/font&gt;" style="ellipse;whiteSpace=wrap;html=1;fontSize=20;spacingTop=5;" parent="1" vertex="1">
                    <mxGeometry x="841.5" y="1330" width="120" height="80" as="geometry"/>
                </mxCell>
                <mxCell id="vplgkhuqn7GU1yu1RdBn-57" value="&lt;font style=&quot;font-size: 20px;&quot;&gt;SCORE&lt;/font&gt;" style="ellipse;whiteSpace=wrap;html=1;fontSize=20;spacingTop=5;" parent="1" vertex="1">
                    <mxGeometry x="429.25" y="1400" width="110" height="70" as="geometry"/>
                </mxCell>
                <mxCell id="vplgkhuqn7GU1yu1RdBn-58" value="&lt;font style=&quot;font-size: 20px;&quot;&gt;&lt;u&gt;&lt;b&gt;Email&lt;/b&gt;&lt;/u&gt;&lt;/font&gt;" style="ellipse;whiteSpace=wrap;html=1;fontSize=20;spacingTop=5;" parent="1" vertex="1">
                    <mxGeometry x="115.5" y="1005" width="120" height="80" as="geometry"/>
                </mxCell>
                <mxCell id="vplgkhuqn7GU1yu1RdBn-59" value="O" style="ellipse;whiteSpace=wrap;html=1;aspect=fixed;fontSize=20;spacingTop=5;" parent="1" vertex="1">
                    <mxGeometry x="449.75" y="1240" width="60.25" height="60.25" as="geometry"/>
                </mxCell>
                <mxCell id="vplgkhuqn7GU1yu1RdBn-62" value="&lt;span style=&quot;font-size: 20px;&quot;&gt;User&lt;/span&gt;" style="rounded=0;whiteSpace=wrap;html=1;fontSize=20;spacingTop=5;" parent="1" vertex="1">
                    <mxGeometry x="415.5" y="1100" width="184.5" height="90" as="geometry"/>
                </mxCell>
                <mxCell id="vplgkhuqn7GU1yu1RdBn-63" value="&lt;font style=&quot;font-size: 20px;&quot;&gt;SNAME&lt;br style=&quot;font-size: 20px;&quot;&gt;&lt;/font&gt;" style="ellipse;whiteSpace=wrap;html=1;fontSize=20;spacingTop=5;" parent="1" vertex="1">
                    <mxGeometry x="889" y="1032.5" width="110" height="70" as="geometry"/>
                </mxCell>
                <mxCell id="vplgkhuqn7GU1yu1RdBn-64" value="&lt;font style=&quot;font-size: 20px;&quot;&gt;PASSWORD&lt;/font&gt;" style="ellipse;whiteSpace=wrap;html=1;fontSize=20;spacingTop=5;" parent="1" vertex="1">
                    <mxGeometry x="186.38" y="840" width="157.25" height="80" as="geometry"/>
                </mxCell>
                <mxCell id="vplgkhuqn7GU1yu1RdBn-65" value="" style="endArrow=classic;html=1;rounded=0;fontSize=20;exitX=1;exitY=0.25;exitDx=0;exitDy=0;entryX=0.028;entryY=0.725;entryDx=0;entryDy=0;entryPerimeter=0;spacingTop=5;" parent="1" source="vplgkhuqn7GU1yu1RdBn-62" target="vplgkhuqn7GU1yu1RdBn-157" edge="1">
                    <mxGeometry width="50" height="50" relative="1" as="geometry">
                        <mxPoint x="458" y="1110" as="sourcePoint"/>
                        <mxPoint x="520.0407500000001" y="931.04" as="targetPoint"/>
                    </mxGeometry>
                </mxCell>
                <mxCell id="vplgkhuqn7GU1yu1RdBn-66" value="" style="endArrow=classic;html=1;rounded=0;fontSize=20;exitX=0.25;exitY=0;exitDx=0;exitDy=0;spacingTop=5;" parent="1" source="vplgkhuqn7GU1yu1RdBn-62" target="vplgkhuqn7GU1yu1RdBn-64" edge="1">
                    <mxGeometry width="50" height="50" relative="1" as="geometry">
                        <mxPoint x="503.8900000000003" y="1107.205" as="sourcePoint"/>
                        <mxPoint x="533.0407500000001" y="951.0400000000001" as="targetPoint"/>
                    </mxGeometry>
                </mxCell>
                <mxCell id="vplgkhuqn7GU1yu1RdBn-67" value="&lt;font style=&quot;font-size: 20px;&quot;&gt;IMAGE&lt;/font&gt;" style="ellipse;whiteSpace=wrap;html=1;fontSize=20;spacingTop=5;" parent="1" vertex="1">
                    <mxGeometry x="642" y="1195" width="110" height="65" as="geometry"/>
                </mxCell>
                <mxCell id="vplgkhuqn7GU1yu1RdBn-68" value="" style="endArrow=classic;html=1;rounded=0;fontSize=20;entryX=0.116;entryY=0.748;entryDx=0;entryDy=0;startArrow=none;exitX=1;exitY=1;exitDx=0;exitDy=0;entryPerimeter=0;spacingTop=5;" parent="1" source="vplgkhuqn7GU1yu1RdBn-62" target="vplgkhuqn7GU1yu1RdBn-67" edge="1">
                    <mxGeometry width="50" height="50" relative="1" as="geometry">
                        <mxPoint x="477.3231331076395" y="1110" as="sourcePoint"/>
                        <mxPoint x="443.9246432796349" y="1027.6245060167175" as="targetPoint"/>
                    </mxGeometry>
                </mxCell>
                <mxCell id="vplgkhuqn7GU1yu1RdBn-69" value="&lt;span style=&quot;font-size: 20px;&quot;&gt;RANK&lt;/span&gt;" style="ellipse;whiteSpace=wrap;html=1;fontSize=20;spacingTop=5;" parent="1" vertex="1">
                    <mxGeometry x="310.25" y="1425" width="110" height="70" as="geometry"/>
                </mxCell>
                <mxCell id="vplgkhuqn7GU1yu1RdBn-78" value="&lt;span style=&quot;font-size: 20px;&quot;&gt;COURSE&lt;/span&gt;" style="rounded=0;whiteSpace=wrap;html=1;fontSize=20;spacingTop=5;" parent="1" vertex="1">
                    <mxGeometry x="-690" y="1182.5" width="130" height="70" as="geometry"/>
                </mxCell>
                <mxCell id="vplgkhuqn7GU1yu1RdBn-81" value="&lt;span style=&quot;font-size: 20px;&quot;&gt;PREREQUISITES&lt;/span&gt;" style="ellipse;whiteSpace=wrap;html=1;fontSize=20;spacingTop=5;" parent="1" vertex="1">
                    <mxGeometry x="-990" y="1061.25" width="177.25" height="50" as="geometry"/>
                </mxCell>
                <mxCell id="vplgkhuqn7GU1yu1RdBn-82" value="" style="endArrow=classic;html=1;rounded=0;fontSize=20;fontColor=#000000;entryX=0.629;entryY=1.02;entryDx=0;entryDy=0;entryPerimeter=0;exitX=0.308;exitY=-0.006;exitDx=0;exitDy=0;exitPerimeter=0;spacingTop=5;" parent="1" source="vplgkhuqn7GU1yu1RdBn-78" target="vplgkhuqn7GU1yu1RdBn-81" edge="1">
                    <mxGeometry width="50" height="50" relative="1" as="geometry">
                        <mxPoint x="-1057.25" y="1365" as="sourcePoint"/>
                        <mxPoint x="-797.25" y="1300" as="targetPoint"/>
                    </mxGeometry>
                </mxCell>
                <mxCell id="vplgkhuqn7GU1yu1RdBn-90" value="" style="endArrow=classic;html=1;rounded=0;fontSize=20;exitX=0.5;exitY=0;exitDx=0;exitDy=0;entryX=0.5;entryY=1;entryDx=0;entryDy=0;spacingTop=5;" parent="1" source="vplgkhuqn7GU1yu1RdBn-78" target="vplgkhuqn7GU1yu1RdBn-225" edge="1">
                    <mxGeometry width="50" height="50" relative="1" as="geometry">
                        <mxPoint x="-887.25" y="1355" as="sourcePoint"/>
                        <mxPoint x="-1163.29" y="1211.6999999999998" as="targetPoint"/>
                    </mxGeometry>
                </mxCell>
                <mxCell id="vplgkhuqn7GU1yu1RdBn-91" value="&lt;span style=&quot;font-size: 20px;&quot;&gt;LESSON&lt;/span&gt;&lt;span style=&quot;font-size: 20px;&quot;&gt;&lt;br style=&quot;font-size: 20px;&quot;&gt;&lt;/span&gt;" style="rounded=0;whiteSpace=wrap;html=1;fontSize=20;spacingTop=5;" parent="1" vertex="1">
                    <mxGeometry x="-244.5" y="2081.87" width="134.5" height="88.13" as="geometry"/>
                </mxCell>
                <mxCell id="vplgkhuqn7GU1yu1RdBn-97" value="&lt;font style=&quot;font-size: 20px;&quot;&gt;DESCRIPTION&lt;/font&gt;" style="ellipse;whiteSpace=wrap;html=1;fontSize=20;strokeWidth=1;spacingTop=5;" parent="1" vertex="1">
                    <mxGeometry x="-460" y="2021.87" width="160" height="60" as="geometry"/>
                </mxCell>
                <mxCell id="vplgkhuqn7GU1yu1RdBn-98" value="&lt;span style=&quot;font-size: 20px;&quot;&gt;NAME&lt;/span&gt;" style="ellipse;whiteSpace=wrap;html=1;fontSize=20;spacingTop=5;" parent="1" vertex="1">
                    <mxGeometry x="-404.5" y="2086.87" width="90" height="40" as="geometry"/>
                </mxCell>
                <mxCell id="vplgkhuqn7GU1yu1RdBn-99" value="" style="endArrow=classic;html=1;rounded=0;fontSize=20;entryX=0.713;entryY=0.965;entryDx=0;entryDy=0;entryPerimeter=0;spacingTop=5;" parent="1" source="vplgkhuqn7GU1yu1RdBn-91" target="vplgkhuqn7GU1yu1RdBn-98" edge="1">
                    <mxGeometry width="50" height="50" relative="1" as="geometry">
                        <mxPoint x="-579.5" y="2356.87" as="sourcePoint"/>
                        <mxPoint x="-589.26" y="2202.89" as="targetPoint"/>
                    </mxGeometry>
                </mxCell>
                <mxCell id="vplgkhuqn7GU1yu1RdBn-100" value="" style="endArrow=classic;html=1;rounded=0;fontSize=20;entryX=1;entryY=1;entryDx=0;entryDy=0;spacingTop=5;" parent="1" source="vplgkhuqn7GU1yu1RdBn-91" target="vplgkhuqn7GU1yu1RdBn-97" edge="1">
                    <mxGeometry width="50" height="50" relative="1" as="geometry">
                        <mxPoint x="-454.5" y="2141.87" as="sourcePoint"/>
                        <mxPoint x="-404.5" y="2091.87" as="targetPoint"/>
                    </mxGeometry>
                </mxCell>
                <mxCell id="vplgkhuqn7GU1yu1RdBn-113" value="" style="endArrow=classic;html=1;rounded=0;fontSize=20;entryX=0.703;entryY=0.935;entryDx=0;entryDy=0;exitX=0.318;exitY=0.02;exitDx=0;exitDy=0;exitPerimeter=0;entryPerimeter=0;spacingTop=5;" parent="1" source="vplgkhuqn7GU1yu1RdBn-91" target="vplgkhuqn7GU1yu1RdBn-224" edge="1">
                    <mxGeometry width="50" height="50" relative="1" as="geometry">
                        <mxPoint x="-219.6162981661996" y="2091.87" as="sourcePoint"/>
                        <mxPoint x="-289.1099999999997" y="2022.8899999999999" as="targetPoint"/>
                    </mxGeometry>
                </mxCell>
                <mxCell id="vplgkhuqn7GU1yu1RdBn-114" value="&lt;span style=&quot;font-size: 20px;&quot;&gt;GROUP CHAT&lt;/span&gt;" style="rounded=0;whiteSpace=wrap;html=1;fontSize=20;spacingTop=5;" parent="1" vertex="1">
                    <mxGeometry x="-857.25" y="1660" width="110" height="65" as="geometry"/>
                </mxCell>
                <mxCell id="vplgkhuqn7GU1yu1RdBn-115" value="" style="endArrow=classic;html=1;rounded=0;fontSize=20;entryX=0.284;entryY=0.051;entryDx=0;entryDy=0;entryPerimeter=0;exitX=0.75;exitY=1;exitDx=0;exitDy=0;spacingTop=5;" parent="1" source="vplgkhuqn7GU1yu1RdBn-114" target="vplgkhuqn7GU1yu1RdBn-228" edge="1">
                    <mxGeometry width="50" height="50" relative="1" as="geometry">
                        <mxPoint x="-857.25" y="1645" as="sourcePoint"/>
                        <mxPoint x="-872.1500000000001" y="1614.6999999999998" as="targetPoint"/>
                        <Array as="points"/>
                    </mxGeometry>
                </mxCell>
                <mxCell id="vplgkhuqn7GU1yu1RdBn-116" value="" style="endArrow=classic;html=1;rounded=0;fontSize=20;fontColor=#000000;entryX=1;entryY=0;entryDx=0;entryDy=0;exitX=0.5;exitY=1;exitDx=0;exitDy=0;spacingTop=5;" parent="1" source="vplgkhuqn7GU1yu1RdBn-114" target="vplgkhuqn7GU1yu1RdBn-227" edge="1">
                    <mxGeometry width="50" height="50" relative="1" as="geometry">
                        <mxPoint x="-827.25" y="1645" as="sourcePoint"/>
                        <mxPoint x="-791.0407500000001" y="1876.5" as="targetPoint"/>
                    </mxGeometry>
                </mxCell>
                <mxCell id="vplgkhuqn7GU1yu1RdBn-117" value="" style="endArrow=classic;html=1;rounded=0;fontSize=20;entryX=0;entryY=1;entryDx=0;entryDy=0;exitX=1;exitY=0;exitDx=0;exitDy=0;spacingTop=5;" parent="1" source="vplgkhuqn7GU1yu1RdBn-114" target="vplgkhuqn7GU1yu1RdBn-119" edge="1">
                    <mxGeometry width="50" height="50" relative="1" as="geometry">
                        <mxPoint x="-835.6700000000001" y="1658.81" as="sourcePoint"/>
                        <mxPoint x="-967.25" y="1650" as="targetPoint"/>
                        <Array as="points"/>
                    </mxGeometry>
                </mxCell>
                <mxCell id="vplgkhuqn7GU1yu1RdBn-119" value="&lt;font style=&quot;font-size: 20px;&quot;&gt;&lt;b&gt;ID&lt;/b&gt;&lt;/font&gt;" style="ellipse;whiteSpace=wrap;html=1;fontSize=20;labelBorderColor=none;fontStyle=4;spacingTop=5;" parent="1" vertex="1">
                    <mxGeometry x="-740" y="1605" width="70" height="40" as="geometry"/>
                </mxCell>
                <mxCell id="vplgkhuqn7GU1yu1RdBn-127" value="&lt;span style=&quot;font-size: 20px;&quot;&gt;&lt;br style=&quot;font-size: 20px;&quot;&gt;&lt;/span&gt;" style="rounded=0;whiteSpace=wrap;html=1;fontSize=20;spacingTop=5;" parent="1" vertex="1">
                    <mxGeometry x="-437.25" y="1670" width="217.25" height="90" as="geometry"/>
                </mxCell>
                <mxCell id="vplgkhuqn7GU1yu1RdBn-128" value="&lt;span style=&quot;font-size: 20px;&quot;&gt;CREATION DATE&amp;amp;TIME&lt;/span&gt;" style="ellipse;whiteSpace=wrap;html=1;fontSize=20;spacingTop=5;" parent="1" vertex="1">
                    <mxGeometry x="-460" y="1545" width="172.75" height="85" as="geometry"/>
                </mxCell>
                <mxCell id="vplgkhuqn7GU1yu1RdBn-129" value="" style="endArrow=classic;html=1;rounded=0;fontSize=20;fontColor=#000000;entryX=0.551;entryY=0.983;entryDx=0;entryDy=0;entryPerimeter=0;exitX=0.5;exitY=0;exitDx=0;exitDy=0;spacingTop=5;" parent="1" source="vplgkhuqn7GU1yu1RdBn-127" target="vplgkhuqn7GU1yu1RdBn-128" edge="1">
                    <mxGeometry width="50" height="50" relative="1" as="geometry">
                        <mxPoint x="-407.25" y="1655" as="sourcePoint"/>
                        <mxPoint x="-147.25" y="1590" as="targetPoint"/>
                    </mxGeometry>
                </mxCell>
                <mxCell id="vplgkhuqn7GU1yu1RdBn-130" value="&lt;span style=&quot;font-size: 20px;&quot;&gt;TEXT&lt;/span&gt;" style="ellipse;whiteSpace=wrap;html=1;fontSize=20;strokeWidth=1;spacingTop=5;" parent="1" vertex="1">
                    <mxGeometry x="-287.25" y="1565" width="140" height="60" as="geometry"/>
                </mxCell>
                <mxCell id="vplgkhuqn7GU1yu1RdBn-131" value="" style="endArrow=classic;html=1;rounded=0;fontSize=20;entryX=0.358;entryY=0.98;entryDx=0;entryDy=0;entryPerimeter=0;spacingTop=5;" parent="1" source="vplgkhuqn7GU1yu1RdBn-127" target="vplgkhuqn7GU1yu1RdBn-130" edge="1">
                    <mxGeometry width="50" height="50" relative="1" as="geometry">
                        <mxPoint x="-362.25" y="1665" as="sourcePoint"/>
                        <mxPoint x="-372.0100000000002" y="1526.02" as="targetPoint"/>
                    </mxGeometry>
                </mxCell>
                <mxCell id="vplgkhuqn7GU1yu1RdBn-145" value="" style="endArrow=classic;html=1;rounded=0;fontSize=20;entryX=1;entryY=0;entryDx=0;entryDy=0;exitX=0;exitY=0.5;exitDx=0;exitDy=0;spacingTop=5;" parent="1" source="vplgkhuqn7GU1yu1RdBn-78" target="vplgkhuqn7GU1yu1RdBn-226" edge="1">
                    <mxGeometry width="50" height="50" relative="1" as="geometry">
                        <mxPoint x="-1077.25" y="1407.5" as="sourcePoint"/>
                        <mxPoint x="-1197.25" y="1430" as="targetPoint"/>
                        <Array as="points"/>
                    </mxGeometry>
                </mxCell>
                <mxCell id="vplgkhuqn7GU1yu1RdBn-157" value="&lt;font style=&quot;font-size: 20px;&quot;&gt;USERNAME&lt;/font&gt;" style="ellipse;whiteSpace=wrap;html=1;fontSize=20;spacingTop=5;fontStyle=4" parent="1" vertex="1">
                    <mxGeometry x="660" y="880" width="157.25" height="80" as="geometry"/>
                </mxCell>
                <mxCell id="vplgkhuqn7GU1yu1RdBn-158" value="&lt;span style=&quot;font-size: 20px;&quot;&gt;JOINDATE&lt;/span&gt;" style="ellipse;whiteSpace=wrap;html=1;fontSize=20;spacingTop=5;" parent="1" vertex="1">
                    <mxGeometry x="420.25" y="860" width="119" height="50" as="geometry"/>
                </mxCell>
                <mxCell id="vplgkhuqn7GU1yu1RdBn-159" value="" style="endArrow=classic;html=1;rounded=0;fontSize=20;entryX=0.5;entryY=1;entryDx=0;entryDy=0;startArrow=none;spacingTop=5;" parent="1" target="vplgkhuqn7GU1yu1RdBn-158" edge="1">
                    <mxGeometry width="50" height="50" relative="1" as="geometry">
                        <mxPoint x="500" y="1100" as="sourcePoint"/>
                        <mxPoint x="434.3499999999999" y="1023.83125" as="targetPoint"/>
                    </mxGeometry>
                </mxCell>
                <mxCell id="vplgkhuqn7GU1yu1RdBn-160" value="&lt;span style=&quot;font-size: 20px;&quot;&gt;ABOUT&lt;/span&gt;" style="ellipse;whiteSpace=wrap;html=1;fontSize=20;spacingTop=5;" parent="1" vertex="1">
                    <mxGeometry x="521" y="800" width="119" height="50" as="geometry"/>
                </mxCell>
                <mxCell id="vplgkhuqn7GU1yu1RdBn-161" value="" style="endArrow=classic;html=1;rounded=0;fontSize=20;entryX=0.5;entryY=1;entryDx=0;entryDy=0;startArrow=none;exitX=0.631;exitY=-0.026;exitDx=0;exitDy=0;exitPerimeter=0;spacingTop=5;" parent="1" source="vplgkhuqn7GU1yu1RdBn-62" target="vplgkhuqn7GU1yu1RdBn-160" edge="1">
                    <mxGeometry width="50" height="50" relative="1" as="geometry">
                        <mxPoint x="510.00000000000045" y="1110" as="sourcePoint"/>
                        <mxPoint x="489.74999999999955" y="920" as="targetPoint"/>
                    </mxGeometry>
                </mxCell>
                <mxCell id="vplgkhuqn7GU1yu1RdBn-163" value="" style="endArrow=classic;html=1;rounded=0;fontSize=20;entryX=0;entryY=1;entryDx=0;entryDy=0;spacingTop=5;" parent="1" target="vplgkhuqn7GU1yu1RdBn-63" edge="1">
                    <mxGeometry width="50" height="50" relative="1" as="geometry">
                        <mxPoint x="770" y="1092" as="sourcePoint"/>
                        <mxPoint x="764.4030000000002" y="1043" as="targetPoint"/>
                    </mxGeometry>
                </mxCell>
                <mxCell id="vplgkhuqn7GU1yu1RdBn-172" value="Element" style="rounded=0;whiteSpace=wrap;html=1;fillColor=#f5f5f5;fontColor=#333333;strokeColor=#666666;fontSize=20;spacingTop=5;" parent="1" vertex="1">
                    <mxGeometry x="-777.25" y="477" width="120" height="30" as="geometry"/>
                </mxCell>
                <mxCell id="vplgkhuqn7GU1yu1RdBn-173" style="edgeStyle=none;html=1;entryX=0.349;entryY=0.022;entryDx=0;entryDy=0;entryPerimeter=0;fontSize=20;fontColor=#000000;strokeColor=#333333;rounded=0;spacingTop=5;startArrow=none;" parent="1" source="vplgkhuqn7GU1yu1RdBn-218" target="vplgkhuqn7GU1yu1RdBn-172" edge="1">
                    <mxGeometry relative="1" as="geometry"/>
                </mxCell>
                <mxCell id="vplgkhuqn7GU1yu1RdBn-174" value="&lt;span style=&quot;font-size: 20px;&quot;&gt;Title&lt;/span&gt;" style="ellipse;whiteSpace=wrap;html=1;fontSize=20;strokeWidth=1;fillColor=#f5f5f5;fontColor=#333333;strokeColor=#666666;rounded=0;spacingTop=5;" parent="1" vertex="1">
                    <mxGeometry x="-951.25" y="370" width="72.25" height="35" as="geometry"/>
                </mxCell>
                <mxCell id="vplgkhuqn7GU1yu1RdBn-175" style="edgeStyle=none;html=1;fontSize=20;fontColor=#000000;strokeColor=#333333;rounded=0;spacingTop=5;" parent="1" source="vplgkhuqn7GU1yu1RdBn-176" target="vplgkhuqn7GU1yu1RdBn-172" edge="1">
                    <mxGeometry relative="1" as="geometry"/>
                </mxCell>
                <mxCell id="vplgkhuqn7GU1yu1RdBn-176" value="&lt;font style=&quot;font-size: 20px;&quot;&gt;&lt;b&gt;ID&lt;/b&gt;&lt;/font&gt;" style="ellipse;whiteSpace=wrap;html=1;fontSize=20;labelBorderColor=none;fontStyle=4;fillColor=#f5f5f5;fontColor=#333333;strokeColor=#666666;rounded=0;spacingTop=5;" parent="1" vertex="1">
                    <mxGeometry x="-990" y="419.5" width="67.25" height="40" as="geometry"/>
                </mxCell>
                <mxCell id="vplgkhuqn7GU1yu1RdBn-177" style="edgeStyle=none;html=1;fontColor=#000000;strokeColor=#333333;rounded=0;fontSize=20;spacingTop=5;entryX=1;entryY=0.75;entryDx=0;entryDy=0;" parent="1" source="vplgkhuqn7GU1yu1RdBn-178" target="vplgkhuqn7GU1yu1RdBn-172" edge="1">
                    <mxGeometry relative="1" as="geometry"/>
                </mxCell>
                <mxCell id="vplgkhuqn7GU1yu1RdBn-178" value="&lt;span style=&quot;font-size: 20px;&quot;&gt;number of students&lt;br style=&quot;font-size: 20px;&quot;&gt;&amp;nbsp;taken it&lt;/span&gt;" style="ellipse;whiteSpace=wrap;html=1;fontSize=20;strokeWidth=1;fillColor=#f5f5f5;fontColor=#333333;strokeColor=#666666;dashed=1;rounded=0;spacingTop=5;" parent="1" vertex="1">
                    <mxGeometry x="-600" y="367.5" width="167.25" height="80" as="geometry"/>
                </mxCell>
                <mxCell id="vplgkhuqn7GU1yu1RdBn-179" style="edgeStyle=none;html=1;fontSize=20;fontColor=#000000;strokeColor=#333333;rounded=0;spacingTop=5;" parent="1" source="vplgkhuqn7GU1yu1RdBn-180" target="vplgkhuqn7GU1yu1RdBn-172" edge="1">
                    <mxGeometry relative="1" as="geometry"/>
                </mxCell>
                <mxCell id="vplgkhuqn7GU1yu1RdBn-180" value="&lt;span style=&quot;font-size: 20px;&quot;&gt;description&lt;/span&gt;" style="ellipse;whiteSpace=wrap;html=1;fontSize=20;strokeWidth=1;fillColor=#f5f5f5;fontColor=#333333;strokeColor=#666666;rounded=0;spacingTop=5;" parent="1" vertex="1">
                    <mxGeometry x="-790" y="385" width="100" height="45" as="geometry"/>
                </mxCell>
                <mxCell id="vplgkhuqn7GU1yu1RdBn-181" style="edgeStyle=none;html=1;fontSize=20;fontColor=#000000;strokeColor=#333333;rounded=0;spacingTop=5;" parent="1" source="vplgkhuqn7GU1yu1RdBn-182" target="vplgkhuqn7GU1yu1RdBn-172" edge="1">
                    <mxGeometry relative="1" as="geometry"/>
                </mxCell>
                <mxCell id="vplgkhuqn7GU1yu1RdBn-182" value="&lt;span style=&quot;font-size: 20px;&quot;&gt;creation&lt;br&gt;date&lt;/span&gt;" style="ellipse;whiteSpace=wrap;html=1;fontSize=20;strokeWidth=1;fillColor=#f5f5f5;fontColor=#333333;strokeColor=#666666;rounded=0;spacingTop=5;" parent="1" vertex="1">
                    <mxGeometry x="-951.25" y="467" width="140" height="50" as="geometry"/>
                </mxCell>
                <mxCell id="vplgkhuqn7GU1yu1RdBn-183" value="Quiz" style="rounded=0;whiteSpace=wrap;html=1;fillColor=#f5f5f5;fontColor=#333333;strokeColor=#666666;fontSize=20;spacingTop=5;" parent="1" vertex="1">
                    <mxGeometry x="-894.25" y="687" width="120" height="30" as="geometry"/>
                </mxCell>
                <mxCell id="vplgkhuqn7GU1yu1RdBn-184" value="Questions" style="rounded=0;whiteSpace=wrap;html=1;fillColor=#f5f5f5;fontColor=#333333;strokeColor=#666666;fontSize=20;spacingTop=5;" parent="1" vertex="1">
                    <mxGeometry x="-1253.75" y="585" width="120" height="30" as="geometry"/>
                </mxCell>
                <mxCell id="vplgkhuqn7GU1yu1RdBn-185" value="d" style="ellipse;whiteSpace=wrap;html=1;aspect=fixed;fontSize=20;fontColor=#333333;rounded=0;fillColor=#f5f5f5;strokeColor=#666666;spacingTop=5;" parent="1" vertex="1">
                    <mxGeometry x="-647.25" y="652" width="78" height="78" as="geometry"/>
                </mxCell>
                <mxCell id="vplgkhuqn7GU1yu1RdBn-186" value="" style="edgeStyle=none;html=1;fontSize=20;fontColor=#000000;strokeColor=#333333;shape=link;endArrow=none;rounded=0;spacingTop=5;" parent="1" source="vplgkhuqn7GU1yu1RdBn-172" target="vplgkhuqn7GU1yu1RdBn-185" edge="1">
                    <mxGeometry relative="1" as="geometry">
                        <mxPoint x="-1051.7857142857142" y="230" as="sourcePoint"/>
                        <mxPoint x="-1138.2142857142858" y="340" as="targetPoint"/>
                    </mxGeometry>
                </mxCell>
                <mxCell id="vplgkhuqn7GU1yu1RdBn-187" style="edgeStyle=none;html=1;entryX=0;entryY=0.75;entryDx=0;entryDy=0;fontSize=20;fontColor=#FFFFFF;strokeColor=#333333;rounded=0;spacingTop=5;" parent="1" source="vplgkhuqn7GU1yu1RdBn-188" target="vplgkhuqn7GU1yu1RdBn-183" edge="1">
                    <mxGeometry relative="1" as="geometry"/>
                </mxCell>
                <mxCell id="vplgkhuqn7GU1yu1RdBn-188" value="&lt;span style=&quot;font-size: 20px;&quot;&gt;number of questions&lt;/span&gt;" style="ellipse;whiteSpace=wrap;html=1;fontSize=20;strokeWidth=1;fillColor=#f5f5f5;fontColor=#333333;strokeColor=#666666;dashed=1;rounded=0;spacingTop=5;" parent="1" vertex="1">
                    <mxGeometry x="-1010" y="760" width="150" height="70" as="geometry"/>
                </mxCell>
                <mxCell id="vplgkhuqn7GU1yu1RdBn-191" style="edgeStyle=none;html=1;entryX=0.5;entryY=0;entryDx=0;entryDy=0;fontSize=20;fontColor=#FFFFFF;strokeColor=#333333;rounded=0;spacingTop=5;" parent="1" source="vplgkhuqn7GU1yu1RdBn-192" target="vplgkhuqn7GU1yu1RdBn-184" edge="1">
                    <mxGeometry relative="1" as="geometry"/>
                </mxCell>
                <mxCell id="vplgkhuqn7GU1yu1RdBn-192" value="&lt;span style=&quot;font-size: 20px;&quot;&gt;score&lt;/span&gt;" style="ellipse;whiteSpace=wrap;html=1;fontSize=20;strokeWidth=1;fillColor=#f5f5f5;fontColor=#333333;strokeColor=#666666;rounded=0;spacingTop=5;" parent="1" vertex="1">
                    <mxGeometry x="-1230" y="507" width="80" height="33" as="geometry"/>
                </mxCell>
                <mxCell id="vplgkhuqn7GU1yu1RdBn-193" style="edgeStyle=none;html=1;fontSize=20;fontColor=#FFFFFF;strokeColor=#333333;rounded=0;spacingTop=5;" parent="1" source="vplgkhuqn7GU1yu1RdBn-194" edge="1">
                    <mxGeometry relative="1" as="geometry">
                        <mxPoint x="-1220" y="590" as="targetPoint"/>
                    </mxGeometry>
                </mxCell>
                <mxCell id="vplgkhuqn7GU1yu1RdBn-194" value="&lt;span style=&quot;font-size: 20px;&quot;&gt;body&lt;/span&gt;" style="ellipse;whiteSpace=wrap;html=1;fontSize=20;strokeWidth=1;fillColor=#f5f5f5;fontColor=#333333;strokeColor=#666666;rounded=0;spacingTop=5;" parent="1" vertex="1">
                    <mxGeometry x="-1287.75" y="525" width="67.75" height="45" as="geometry"/>
                </mxCell>
                <mxCell id="vplgkhuqn7GU1yu1RdBn-195" value="Choices" style="rounded=0;whiteSpace=wrap;html=1;fillColor=#f5f5f5;fontColor=#333333;strokeColor=#666666;absoluteArcSize=0;double=1;snapToPoint=1;fixDash=0;autosize=0;container=0;dropTarget=0;collapsible=0;backgroundOutline=1;comic=0;treeMoving=0;treeFolding=0;perimeterSpacing=0;strokeWidth=1;fontSize=20;spacingTop=5;" parent="1" vertex="1">
                    <mxGeometry x="-1196.25" y="1162.75" width="120" height="60" as="geometry"/>
                </mxCell>
                <mxCell id="vplgkhuqn7GU1yu1RdBn-196" style="edgeStyle=none;html=1;entryX=0;entryY=0.5;entryDx=0;entryDy=0;fontSize=20;fontColor=#FFFFFF;strokeColor=#333333;rounded=0;spacingTop=5;" parent="1" source="vplgkhuqn7GU1yu1RdBn-197" target="vplgkhuqn7GU1yu1RdBn-195" edge="1">
                    <mxGeometry relative="1" as="geometry"/>
                </mxCell>
                <mxCell id="vplgkhuqn7GU1yu1RdBn-197" value="&lt;span style=&quot;font-size: 20px;&quot;&gt;is_correct&lt;/span&gt;" style="ellipse;whiteSpace=wrap;html=1;fontSize=20;strokeWidth=1;fillColor=#f5f5f5;fontColor=#333333;strokeColor=#666666;rounded=0;spacingTop=5;" parent="1" vertex="1">
                    <mxGeometry x="-1333.5" y="1111.25" width="110.75" height="50" as="geometry"/>
                </mxCell>
                <mxCell id="vplgkhuqn7GU1yu1RdBn-198" style="edgeStyle=none;html=1;fontSize=20;fontColor=#FFFFFF;strokeColor=#333333;rounded=0;spacingTop=5;" parent="1" edge="1">
                    <mxGeometry relative="1" as="geometry">
                        <mxPoint x="-1066.25" y="1112.75" as="sourcePoint"/>
                        <mxPoint x="-1076.25" y="1162.75" as="targetPoint"/>
                    </mxGeometry>
                </mxCell>
                <mxCell id="vplgkhuqn7GU1yu1RdBn-201" style="edgeStyle=none;html=1;fontSize=20;fontColor=#333333;strokeColor=#333333;rounded=0;spacingTop=5;" parent="1" source="vplgkhuqn7GU1yu1RdBn-202" target="vplgkhuqn7GU1yu1RdBn-184" edge="1">
                    <mxGeometry relative="1" as="geometry"/>
                </mxCell>
                <mxCell id="vplgkhuqn7GU1yu1RdBn-202" value="&lt;font style=&quot;font-size: 20px;&quot;&gt;&lt;b style=&quot;font-size: 20px;&quot;&gt;ID&lt;/b&gt;&lt;/font&gt;" style="ellipse;whiteSpace=wrap;html=1;fontSize=20;labelBorderColor=none;fontStyle=4;fillColor=#f5f5f5;fontColor=#333333;strokeColor=#666666;rounded=0;spacingTop=5;" parent="1" vertex="1">
                    <mxGeometry x="-1100" y="517" width="50" height="45" as="geometry"/>
                </mxCell>
                <mxCell id="vplgkhuqn7GU1yu1RdBn-203" style="edgeStyle=none;html=1;fontSize=20;fontColor=#000000;strokeColor=#333333;rounded=0;spacingTop=5;exitX=1;exitY=1;exitDx=0;exitDy=0;" parent="1" source="vplgkhuqn7GU1yu1RdBn-174" edge="1">
                    <mxGeometry relative="1" as="geometry">
                        <mxPoint x="-1167.000580976398" y="100.00473436739233" as="sourcePoint"/>
                        <mxPoint x="-760" y="480" as="targetPoint"/>
                    </mxGeometry>
                </mxCell>
                <mxCell id="vplgkhuqn7GU1yu1RdBn-204" value="" style="shape=link;html=1;rounded=0;entryX=0.5;entryY=1;entryDx=0;entryDy=0;exitX=0.5;exitY=0;exitDx=0;exitDy=0;fontSize=20;spacingTop=5;" parent="1" source="vplgkhuqn7GU1yu1RdBn-59" target="vplgkhuqn7GU1yu1RdBn-62" edge="1">
                    <mxGeometry width="100" relative="1" as="geometry">
                        <mxPoint x="120" y="810" as="sourcePoint"/>
                        <mxPoint x="220" y="810" as="targetPoint"/>
                    </mxGeometry>
                </mxCell>
                <mxCell id="vplgkhuqn7GU1yu1RdBn-218" value="&lt;span style=&quot;font-size: 20px;&quot;&gt;image&lt;/span&gt;" style="ellipse;whiteSpace=wrap;html=1;fontSize=20;strokeWidth=1;fillColor=#f5f5f5;fontColor=#333333;strokeColor=#666666;rounded=0;spacingTop=5;" parent="1" vertex="1">
                    <mxGeometry x="-872.87" y="370" width="77.25" height="30" as="geometry"/>
                </mxCell>
                <mxCell id="vplgkhuqn7GU1yu1RdBn-219" value="&lt;span style=&quot;font-size: 20px;&quot;&gt;body&lt;/span&gt;" style="ellipse;whiteSpace=wrap;html=1;fontSize=20;strokeWidth=1;fillColor=#f5f5f5;fontColor=#333333;strokeColor=#666666;rounded=0;spacingTop=5;" parent="1" vertex="1">
                    <mxGeometry x="-1100" y="1078.25" width="90" height="33" as="geometry"/>
                </mxCell>
                <mxCell id="vplgkhuqn7GU1yu1RdBn-220" value="" style="endArrow=classic;html=1;rounded=0;fontSize=20;entryX=0.391;entryY=-0.02;entryDx=0;entryDy=0;spacingTop=5;exitX=1;exitY=0.5;exitDx=0;exitDy=0;entryPerimeter=0;" parent="1" source="vplgkhuqn7GU1yu1RdBn-91" target="vplgkhuqn7GU1yu1RdBn-223" edge="1">
                    <mxGeometry width="50" height="50" relative="1" as="geometry">
                        <mxPoint x="-234.5" y="2107.0957141974272" as="sourcePoint"/>
                        <mxPoint x="-3.818542494923804" y="2118.0832034355963" as="targetPoint"/>
                    </mxGeometry>
                </mxCell>
                <mxCell id="vplgkhuqn7GU1yu1RdBn-223" value="&lt;span style=&quot;font-size: 20px;&quot;&gt;NUMBER OF QUIZZES&lt;/span&gt;" style="ellipse;whiteSpace=wrap;html=1;fontSize=20;strokeWidth=1;fillColor=#f5f5f5;fontColor=#333333;strokeColor=#666666;dashed=1;rounded=0;spacingTop=5;" parent="1" vertex="1">
                    <mxGeometry x="-104.5" y="2156.87" width="260" height="90" as="geometry"/>
                </mxCell>
                <mxCell id="vplgkhuqn7GU1yu1RdBn-224" value="&lt;span style=&quot;font-size: 20px;&quot;&gt;NUMBER OF &lt;br&gt;ARTICLES&lt;/span&gt;" style="ellipse;whiteSpace=wrap;html=1;fontSize=20;strokeWidth=1;fillColor=#f5f5f5;fontColor=#333333;strokeColor=#666666;dashed=1;rounded=0;spacingTop=5;" parent="1" vertex="1">
                    <mxGeometry x="-435" y="1920" width="227.75" height="70" as="geometry"/>
                </mxCell>
                <mxCell id="vplgkhuqn7GU1yu1RdBn-225" value="&lt;span style=&quot;font-size: 20px;&quot;&gt;NUMBER OF ENROLLED&lt;br&gt;STUDENTS&lt;br&gt;&lt;/span&gt;" style="ellipse;whiteSpace=wrap;html=1;fontSize=20;strokeWidth=1;fillColor=#f5f5f5;fontColor=#333333;strokeColor=#666666;dashed=1;rounded=0;spacingTop=5;" parent="1" vertex="1">
                    <mxGeometry x="-894.25" y="961.25" width="284.5" height="100" as="geometry"/>
                </mxCell>
                <mxCell id="vplgkhuqn7GU1yu1RdBn-226" value="&lt;span style=&quot;font-size: 20px;&quot;&gt;NUMBER OF &lt;br&gt;LESSONS&lt;/span&gt;" style="ellipse;whiteSpace=wrap;html=1;fontSize=20;strokeWidth=1;fillColor=#f5f5f5;fontColor=#333333;strokeColor=#666666;dashed=1;rounded=0;spacingTop=5;" parent="1" vertex="1">
                    <mxGeometry x="-941.25" y="1280" width="224.81" height="95" as="geometry"/>
                </mxCell>
                <mxCell id="vplgkhuqn7GU1yu1RdBn-227" value="&lt;span style=&quot;font-size: 20px;&quot;&gt;NUMBER OF&lt;br&gt;INSTRUCTORS&lt;/span&gt;" style="ellipse;whiteSpace=wrap;html=1;fontSize=20;strokeWidth=1;fillColor=#f5f5f5;fontColor=#333333;strokeColor=#666666;dashed=1;rounded=0;spacingTop=5;" parent="1" vertex="1">
                    <mxGeometry x="-1010" y="1770" width="200" height="110" as="geometry"/>
                </mxCell>
                <mxCell id="vplgkhuqn7GU1yu1RdBn-228" value="&lt;span style=&quot;font-size: 20px;&quot;&gt;NUMBER OF&lt;br&gt;STUDENTS&lt;/span&gt;" style="ellipse;whiteSpace=wrap;html=1;fontSize=20;strokeWidth=1;fillColor=#f5f5f5;fontColor=#333333;strokeColor=#666666;dashed=1;rounded=0;spacingTop=5;" parent="1" vertex="1">
                    <mxGeometry x="-774.25" y="1770" width="187.25" height="90" as="geometry"/>
                </mxCell>
                <mxCell id="vplgkhuqn7GU1yu1RdBn-230" value="CONVERSATION MESSAGE" style="rounded=0;whiteSpace=wrap;html=1;fontSize=20;" parent="1" vertex="1">
                    <mxGeometry x="-418.62" y="1685" width="180" height="60" as="geometry"/>
                </mxCell>
                <mxCell id="vplgkhuqn7GU1yu1RdBn-231" value="ARTICLES WRITTEN&lt;br&gt;COUNT" style="ellipse;whiteSpace=wrap;html=1;fontSize=20;strokeWidth=1;fillColor=#f5f5f5;fontColor=#333333;strokeColor=#666666;dashed=1;rounded=0;spacingTop=5;" parent="1" vertex="1">
                    <mxGeometry x="930" y="1495" width="203" height="90" as="geometry"/>
                </mxCell>
                <mxCell id="vplgkhuqn7GU1yu1RdBn-237" value="&lt;font style=&quot;font-size: 20px;&quot;&gt;&lt;b style=&quot;font-size: 20px;&quot;&gt;ID&lt;/b&gt;&lt;/font&gt;" style="ellipse;whiteSpace=wrap;html=1;fontSize=20;labelBorderColor=none;fontStyle=0;fillColor=#f5f5f5;fontColor=#333333;strokeColor=#666666;rounded=0;spacingTop=5;" parent="1" vertex="1">
                    <mxGeometry x="-1247.25" y="1255.25" width="83.75" height="45" as="geometry"/>
                </mxCell>
                <mxCell id="vplgkhuqn7GU1yu1RdBn-238" style="edgeStyle=none;html=1;fontSize=20;fontColor=#FFFFFF;strokeColor=#333333;rounded=0;spacingTop=5;exitX=0.5;exitY=0;exitDx=0;exitDy=0;" parent="1" source="vplgkhuqn7GU1yu1RdBn-237" target="vplgkhuqn7GU1yu1RdBn-195" edge="1">
                    <mxGeometry relative="1" as="geometry">
                        <mxPoint x="-1237.6273679617798" y="1167.1168008682562" as="sourcePoint"/>
                        <mxPoint x="-1186.25" y="1202.75" as="targetPoint"/>
                    </mxGeometry>
                </mxCell>
                <mxCell id="vplgkhuqn7GU1yu1RdBn-239" value="COURSES COUNT" style="ellipse;whiteSpace=wrap;html=1;fontSize=20;strokeWidth=1;fillColor=#f5f5f5;fontColor=#333333;strokeColor=#666666;dashed=1;rounded=0;spacingTop=5;" parent="1" vertex="1">
                    <mxGeometry x="50" y="1710" width="167.25" height="80" as="geometry"/>
                </mxCell>
                <mxCell id="vplgkhuqn7GU1yu1RdBn-240" value="ARTICLES COUNT" style="ellipse;whiteSpace=wrap;html=1;fontSize=20;strokeWidth=1;fillColor=#f5f5f5;fontColor=#333333;strokeColor=#666666;dashed=1;rounded=0;spacingTop=5;" parent="1" vertex="1">
                    <mxGeometry x="359" y="1680" width="167.25" height="80" as="geometry"/>
                </mxCell>
                <mxCell id="vplgkhuqn7GU1yu1RdBn-241" value="" style="endArrow=none;html=1;rounded=0;fontSize=20;entryX=0.5;entryY=1;entryDx=0;entryDy=0;exitX=0.75;exitY=0;exitDx=0;exitDy=0;spacingTop=5;" parent="1" source="vplgkhuqn7GU1yu1RdBn-25" target="vplgkhuqn7GU1yu1RdBn-240" edge="1">
                    <mxGeometry width="50" height="50" relative="1" as="geometry">
                        <mxPoint x="379.25" y="1817.5" as="sourcePoint"/>
                        <mxPoint x="401.75" y="1750" as="targetPoint"/>
                        <Array as="points"/>
                    </mxGeometry>
                </mxCell>
                <mxCell id="vplgkhuqn7GU1yu1RdBn-243" value="NUMBER OF COMMENTS" style="ellipse;whiteSpace=wrap;html=1;fontSize=20;strokeWidth=1;fillColor=#f5f5f5;fontColor=#333333;strokeColor=#666666;dashed=1;rounded=0;spacingTop=5;" parent="1" vertex="1">
                    <mxGeometry x="-90" y="300" width="167.25" height="80" as="geometry"/>
                </mxCell>
                <mxCell id="vplgkhuqn7GU1yu1RdBn-244" value="&lt;span style=&quot;font-size: 20px;&quot;&gt;NUMBER OF SOLVED QUIZZES&lt;/span&gt;" style="ellipse;whiteSpace=wrap;html=1;fontSize=20;strokeWidth=1;fillColor=#f5f5f5;fontColor=#333333;strokeColor=#666666;dashed=1;rounded=0;spacingTop=5;" parent="1" vertex="1">
                    <mxGeometry x="162.75" y="1170" width="260" height="90" as="geometry"/>
                </mxCell>
                <mxCell id="vplgkhuqn7GU1yu1RdBn-245" value="&lt;span style=&quot;font-size: 20px;&quot;&gt;NUMBER OF ENROLLED COURSES&lt;/span&gt;" style="ellipse;whiteSpace=wrap;html=1;fontSize=20;strokeWidth=1;fillColor=#f5f5f5;fontColor=#333333;strokeColor=#666666;dashed=1;rounded=0;spacingTop=5;" parent="1" vertex="1">
                    <mxGeometry x="-70" y="1102.5" width="277.25" height="100" as="geometry"/>
                </mxCell>
                <mxCell id="vplgkhuqn7GU1yu1RdBn-246" value="&lt;span style=&quot;font-size: 20px;&quot;&gt;NUMBER OF COURSES INSTRUCTED&lt;/span&gt;" style="ellipse;whiteSpace=wrap;html=1;fontSize=20;strokeWidth=1;fillColor=#f5f5f5;fontColor=#333333;strokeColor=#666666;dashed=1;rounded=0;spacingTop=5;" parent="1" vertex="1">
                    <mxGeometry x="600" y="1320" width="233" height="100" as="geometry"/>
                </mxCell>
                <mxCell id="vplgkhuqn7GU1yu1RdBn-247" value="&lt;font style=&quot;font-size: 20px;&quot;&gt;&lt;span style=&quot;font-size: 20px;&quot;&gt;ID&lt;/span&gt;&lt;/font&gt;" style="ellipse;whiteSpace=wrap;html=1;fontSize=20;labelBorderColor=none;fontStyle=1;spacingTop=5;" parent="1" vertex="1">
                    <mxGeometry x="-197.25" y="2196.87" width="67.25" height="53.13" as="geometry"/>
                </mxCell>
                <mxCell id="vplgkhuqn7GU1yu1RdBn-248" value="" style="endArrow=classic;html=1;rounded=0;fontSize=20;entryX=0.5;entryY=0;entryDx=0;entryDy=0;spacingTop=5;exitX=0.75;exitY=1;exitDx=0;exitDy=0;" parent="1" source="vplgkhuqn7GU1yu1RdBn-91" target="vplgkhuqn7GU1yu1RdBn-247" edge="1">
                    <mxGeometry width="50" height="50" relative="1" as="geometry">
                        <mxPoint x="-117.25" y="2129.37" as="sourcePoint"/>
                        <mxPoint x="7.1599999999998545" y="2165.0699999999997" as="targetPoint"/>
                    </mxGeometry>
                </mxCell>
                <mxCell id="vplgkhuqn7GU1yu1RdBn-269" value="&lt;font style=&quot;font-size: 20px;&quot;&gt;Comment&lt;/font&gt;" style="rounded=0;whiteSpace=wrap;html=1;fontSize=20;spacingTop=5;" parent="1" vertex="1">
                    <mxGeometry x="459" y="582" width="130" height="70" as="geometry"/>
                </mxCell>
                <mxCell id="vplgkhuqn7GU1yu1RdBn-270" value="&lt;span style=&quot;font-size: 20px;&quot;&gt;LIKES&lt;/span&gt;" style="ellipse;whiteSpace=wrap;html=1;fontSize=20;spacingTop=5;" parent="1" vertex="1">
                    <mxGeometry x="511" y="407" width="70" height="40" as="geometry"/>
                </mxCell>
                <mxCell id="vplgkhuqn7GU1yu1RdBn-271" value="&lt;font style=&quot;font-size: 20px;&quot;&gt;BODY&lt;/font&gt;" style="ellipse;whiteSpace=wrap;html=1;fontSize=20;spacingTop=5;" parent="1" vertex="1">
                    <mxGeometry x="380" y="412" width="131" height="80" as="geometry"/>
                </mxCell>
                <mxCell id="vplgkhuqn7GU1yu1RdBn-272" value="&lt;font style=&quot;font-size: 20px;&quot;&gt;&lt;b&gt;ID&lt;/b&gt;&lt;/font&gt;" style="ellipse;whiteSpace=wrap;html=1;fontSize=20;labelBorderColor=none;fontStyle=4;spacingTop=5;" parent="1" vertex="1">
                    <mxGeometry x="740" y="532" width="70" height="40" as="geometry"/>
                </mxCell>
                <mxCell id="vplgkhuqn7GU1yu1RdBn-273" value="" style="endArrow=classic;html=1;rounded=0;fontSize=20;entryX=0;entryY=1;entryDx=0;entryDy=0;spacingTop=5;" parent="1" target="vplgkhuqn7GU1yu1RdBn-272" edge="1">
                    <mxGeometry width="50" height="50" relative="1" as="geometry">
                        <mxPoint x="590" y="602" as="sourcePoint"/>
                        <mxPoint x="550" y="622" as="targetPoint"/>
                        <Array as="points"/>
                    </mxGeometry>
                </mxCell>
                <mxCell id="vplgkhuqn7GU1yu1RdBn-274" value="" style="endArrow=classic;html=1;rounded=0;fontSize=20;entryX=0.634;entryY=0.995;entryDx=0;entryDy=0;entryPerimeter=0;exitX=0.58;exitY=0.003;exitDx=0;exitDy=0;exitPerimeter=0;spacingTop=5;" parent="1" source="vplgkhuqn7GU1yu1RdBn-269" target="vplgkhuqn7GU1yu1RdBn-270" edge="1">
                    <mxGeometry width="50" height="50" relative="1" as="geometry">
                        <mxPoint x="630" y="642" as="sourcePoint"/>
                        <mxPoint x="770.251262658471" y="586.142135623731" as="targetPoint"/>
                        <Array as="points"/>
                    </mxGeometry>
                </mxCell>
                <mxCell id="vplgkhuqn7GU1yu1RdBn-275" value="" style="endArrow=classic;html=1;rounded=0;fontSize=20;fontColor=#000000;entryX=0.611;entryY=1.035;entryDx=0;entryDy=0;entryPerimeter=0;spacingTop=5;" parent="1" source="vplgkhuqn7GU1yu1RdBn-269" target="vplgkhuqn7GU1yu1RdBn-271" edge="1">
                    <mxGeometry width="50" height="50" relative="1" as="geometry">
                        <mxPoint x="500" y="682" as="sourcePoint"/>
                        <mxPoint x="550" y="632" as="targetPoint"/>
                    </mxGeometry>
                </mxCell>
                <mxCell id="vplgkhuqn7GU1yu1RdBn-276" value="&lt;span style=&quot;font-size: 20px;&quot;&gt;DISLIKES&lt;/span&gt;" style="ellipse;whiteSpace=wrap;html=1;fontSize=20;spacingTop=5;" parent="1" vertex="1">
                    <mxGeometry x="270" y="484.5" width="120" height="55" as="geometry"/>
                </mxCell>
                <mxCell id="vplgkhuqn7GU1yu1RdBn-277" value="" style="endArrow=classic;html=1;rounded=0;fontSize=20;fontColor=#000000;entryX=0.743;entryY=1.01;entryDx=0;entryDy=0;entryPerimeter=0;exitX=0;exitY=0;exitDx=0;exitDy=0;spacingTop=5;" parent="1" source="vplgkhuqn7GU1yu1RdBn-269" target="vplgkhuqn7GU1yu1RdBn-276" edge="1">
                    <mxGeometry width="50" height="50" relative="1" as="geometry">
                        <mxPoint x="500" y="682" as="sourcePoint"/>
                        <mxPoint x="550" y="632" as="targetPoint"/>
                    </mxGeometry>
                </mxCell>
                <mxCell id="vplgkhuqn7GU1yu1RdBn-278" value="&lt;span style=&quot;font-size: 20px;&quot;&gt;CREATIONDATE&lt;br style=&quot;font-size: 20px;&quot;&gt;&amp;amp;TIME&lt;/span&gt;" style="ellipse;whiteSpace=wrap;html=1;fontSize=20;spacingTop=5;" parent="1" vertex="1">
                    <mxGeometry x="610" y="419.5" width="189" height="85" as="geometry"/>
                </mxCell>
                <mxCell id="vplgkhuqn7GU1yu1RdBn-279" value="" style="endArrow=classic;html=1;rounded=0;fontSize=20;fontColor=#000000;exitX=0.75;exitY=0;exitDx=0;exitDy=0;entryX=0.342;entryY=0.982;entryDx=0;entryDy=0;entryPerimeter=0;spacingTop=5;" parent="1" source="vplgkhuqn7GU1yu1RdBn-269" target="vplgkhuqn7GU1yu1RdBn-278" edge="1">
                    <mxGeometry width="50" height="50" relative="1" as="geometry">
                        <mxPoint x="480" y="542" as="sourcePoint"/>
                        <mxPoint x="600" y="462" as="targetPoint"/>
                    </mxGeometry>
                </mxCell>
                <mxCell id="Vu37Sst8_M4a0Wf6rO-W-1" value="NAME" style="ellipse;whiteSpace=wrap;html=1;fontSize=18;" parent="1" vertex="1">
                    <mxGeometry x="656.5" y="1040" width="120" height="80" as="geometry"/>
                </mxCell>
                <mxCell id="Vu37Sst8_M4a0Wf6rO-W-2" value="" style="endArrow=classic;html=1;rounded=0;fontSize=20;spacingTop=5;exitX=1;exitY=0.5;exitDx=0;exitDy=0;" parent="1" source="vplgkhuqn7GU1yu1RdBn-62" edge="1">
                    <mxGeometry width="50" height="50" relative="1" as="geometry">
                        <mxPoint x="760" y="1050" as="sourcePoint"/>
                        <mxPoint x="680" y="1100" as="targetPoint"/>
                    </mxGeometry>
                </mxCell>
                <mxCell id="_zjXraP896WjvT4baJnf-1" value="Choices" style="rounded=0;whiteSpace=wrap;html=1;fillColor=#f5f5f5;fontColor=#333333;strokeColor=#666666;absoluteArcSize=0;double=1;snapToPoint=1;fixDash=0;autosize=0;container=0;dropTarget=0;collapsible=0;backgroundOutline=1;comic=0;treeMoving=0;treeFolding=0;perimeterSpacing=0;strokeWidth=1;fontSize=20;spacingTop=5;" parent="1" vertex="1">
                    <mxGeometry x="-1184.38" y="1167.75" width="96.25" height="50" as="geometry"/>
                </mxCell>
                <mxCell id="ERWPiqOQnjAHUexy-uqH-1" value="" style="endArrow=none;html=1;rounded=0;labelBackgroundColor=#FFFFFF;fontSize=18;fontColor=#000000;entryX=0;entryY=1;entryDx=0;entryDy=0;exitX=1;exitY=0.5;exitDx=0;exitDy=0;" parent="1" source="vplgkhuqn7GU1yu1RdBn-185" target="vplgkhuqn7GU1yu1RdBn-1" edge="1">
                    <mxGeometry width="50" height="50" relative="1" as="geometry">
                        <mxPoint x="-520" y="680" as="sourcePoint"/>
                        <mxPoint x="-470" y="630" as="targetPoint"/>
                    </mxGeometry>
                </mxCell>
                <mxCell id="ERWPiqOQnjAHUexy-uqH-2" value="" style="endArrow=none;html=1;rounded=0;labelBackgroundColor=#FFFFFF;fontSize=18;fontColor=#000000;exitX=1;exitY=0.25;exitDx=0;exitDy=0;entryX=0.022;entryY=0.694;entryDx=0;entryDy=0;entryPerimeter=0;" parent="1" source="vplgkhuqn7GU1yu1RdBn-183" target="vplgkhuqn7GU1yu1RdBn-185" edge="1">
                    <mxGeometry width="50" height="50" relative="1" as="geometry">
                        <mxPoint x="-520" y="680" as="sourcePoint"/>
                        <mxPoint x="-470" y="630" as="targetPoint"/>
                    </mxGeometry>
                </mxCell>
                <mxCell id="wkteiwuTOcxYK3IYlvAE-1" value="" style="endArrow=none;html=1;rounded=0;labelBackgroundColor=#FFFFFF;fontSize=18;fontColor=#000000;entryX=0.5;entryY=1;entryDx=0;entryDy=0;exitX=0.931;exitY=0.101;exitDx=0;exitDy=0;exitPerimeter=0;" parent="1" source="vplgkhuqn7GU1yu1RdBn-78" target="vplgkhuqn7GU1yu1RdBn-185" edge="1">
                    <mxGeometry width="50" height="50" relative="1" as="geometry">
                        <mxPoint x="-520" y="990" as="sourcePoint"/>
                        <mxPoint x="-470" y="940" as="targetPoint"/>
                    </mxGeometry>
                </mxCell>
                <mxCell id="jzGNNFcWUoGo_IDWeV9O-1" value="" style="endArrow=none;html=1;rounded=0;labelBackgroundColor=#FFFFFF;fontSize=18;fontColor=#000000;exitX=1;exitY=0;exitDx=0;exitDy=0;entryX=0;entryY=1;entryDx=0;entryDy=0;" parent="1" source="vplgkhuqn7GU1yu1RdBn-53" target="vplgkhuqn7GU1yu1RdBn-59" edge="1">
                    <mxGeometry width="50" height="50" relative="1" as="geometry">
                        <mxPoint x="390" y="1240" as="sourcePoint"/>
                        <mxPoint x="440" y="1190" as="targetPoint"/>
                    </mxGeometry>
                </mxCell>
                <mxCell id="jzGNNFcWUoGo_IDWeV9O-3" value="" style="endArrow=none;html=1;rounded=0;labelBackgroundColor=#FFFFFF;fontSize=18;fontColor=#000000;exitX=0;exitY=0;exitDx=0;exitDy=0;entryX=1;entryY=1;entryDx=0;entryDy=0;" parent="1" source="vplgkhuqn7GU1yu1RdBn-54" target="vplgkhuqn7GU1yu1RdBn-59" edge="1">
                    <mxGeometry width="50" height="50" relative="1" as="geometry">
                        <mxPoint x="670" y="1240" as="sourcePoint"/>
                        <mxPoint x="720" y="1190" as="targetPoint"/>
                    </mxGeometry>
                </mxCell>
                <mxCell id="m4WwWhkCW4WB1jnAs6Il-1" value="&lt;span style=&quot;font-size: 20px;&quot;&gt;LESSON&lt;/span&gt;&lt;span style=&quot;font-size: 20px;&quot;&gt;&lt;br style=&quot;font-size: 20px;&quot;&gt;&lt;/span&gt;" style="rounded=0;whiteSpace=wrap;html=1;fontSize=20;spacingTop=5;" parent="1" vertex="1">
                    <mxGeometry x="-239.5" y="2091.87" width="124.5" height="68.13" as="geometry"/>
                </mxCell>
                <mxCell id="muJP0cTpgrE_XAx7qYnk-1" value="" style="endArrow=none;dashed=1;html=1;dashPattern=1 3;strokeWidth=2;rounded=0;labelBackgroundColor=#FFFFFF;fontSize=20;fontColor=#000000;" parent="1" edge="1">
                    <mxGeometry width="50" height="50" relative="1" as="geometry">
                        <mxPoint x="-178.62" y="2240" as="sourcePoint"/>
                        <mxPoint x="-148.62" y="2240" as="targetPoint"/>
                    </mxGeometry>
                </mxCell>
                <mxCell id="muJP0cTpgrE_XAx7qYnk-4" value="" style="endArrow=none;dashed=1;html=1;dashPattern=1 3;strokeWidth=2;rounded=0;labelBackgroundColor=#FFFFFF;fontSize=20;fontColor=#000000;" parent="1" edge="1">
                    <mxGeometry width="50" height="50" relative="1" as="geometry">
                        <mxPoint x="-1215.38" y="1295" as="sourcePoint"/>
                        <mxPoint x="-1195.38" y="1295" as="targetPoint"/>
                    </mxGeometry>
                </mxCell>
                <mxCell id="vplgkhuqn7GU1yu1RdBn-242" value="QUIZ COUNT" style="ellipse;whiteSpace=wrap;html=1;fontSize=20;strokeWidth=1;fillColor=#f5f5f5;fontColor=#333333;strokeColor=#666666;dashed=1;rounded=0;spacingTop=5;" parent="1" vertex="1">
                    <mxGeometry x="176.38" y="1645" width="167.25" height="80" as="geometry"/>
                </mxCell>
                <mxCell id="muJP0cTpgrE_XAx7qYnk-5" value="" style="endArrow=none;html=1;rounded=0;fontSize=20;fontColor=#000000;entryX=0.629;entryY=1.02;entryDx=0;entryDy=0;entryPerimeter=0;exitX=0.5;exitY=0;exitDx=0;exitDy=0;spacingTop=5;" parent="1" source="vplgkhuqn7GU1yu1RdBn-25" target="vplgkhuqn7GU1yu1RdBn-242" edge="1">
                    <mxGeometry width="50" height="50" relative="1" as="geometry">
                        <mxPoint x="346.74999999999955" y="1817.5" as="sourcePoint"/>
                        <mxPoint x="253.8510000000001" y="1721" as="targetPoint"/>
                    </mxGeometry>
                </mxCell>
                <mxCell id="iszDTgR7j5Pm_zy9wR3C-1" value="Max Score" style="ellipse;whiteSpace=wrap;html=1;fontSize=20;fontColor=#000000;" parent="1" vertex="1">
                    <mxGeometry x="-879" y="560" width="109" height="70" as="geometry"/>
                </mxCell>
                <mxCell id="iszDTgR7j5Pm_zy9wR3C-4" value="" style="endArrow=none;html=1;rounded=0;labelBackgroundColor=#FFFFFF;fontSize=20;fontColor=#000000;entryX=0.5;entryY=1;entryDx=0;entryDy=0;" parent="1" target="iszDTgR7j5Pm_zy9wR3C-1" edge="1">
                    <mxGeometry width="50" height="50" relative="1" as="geometry">
                        <mxPoint x="-840" y="690" as="sourcePoint"/>
                        <mxPoint x="-810" y="760" as="targetPoint"/>
                    </mxGeometry>
                </mxCell>
                <mxCell id="2iqcGyBkWMgYsbqfy7ZI-3" value="TITLE" style="ellipse;whiteSpace=wrap;html=1;fontSize=20;fontColor=#000000;" parent="1" vertex="1">
                    <mxGeometry x="-915.62" y="1545" width="120" height="80" as="geometry"/>
                </mxCell>
                <mxCell id="2iqcGyBkWMgYsbqfy7ZI-4" value="" style="endArrow=classic;html=1;rounded=0;labelBackgroundColor=#FFFFFF;fontSize=20;fontColor=#000000;exitX=0.5;exitY=0;exitDx=0;exitDy=0;entryX=0.5;entryY=1;entryDx=0;entryDy=0;" parent="1" source="vplgkhuqn7GU1yu1RdBn-114" target="2iqcGyBkWMgYsbqfy7ZI-3" edge="1">
                    <mxGeometry width="50" height="50" relative="1" as="geometry">
                        <mxPoint x="-560" y="1550" as="sourcePoint"/>
                        <mxPoint x="-510" y="1500" as="targetPoint"/>
                    </mxGeometry>
                </mxCell>
                <mxCell id="fVS2lUFFQ2VJKdbX-PjN-1" value="NUMBER OF READ ARTICLES" style="ellipse;whiteSpace=wrap;html=1;fontSize=20;fontColor=#000000;" parent="1" vertex="1">
                    <mxGeometry x="-84.5" y="1305" width="200" height="90" as="geometry"/>
                </mxCell>
                <mxCell id="fVS2lUFFQ2VJKdbX-PjN-2" value="" style="endArrow=none;html=1;rounded=0;labelBackgroundColor=#FFFFFF;fontSize=20;fontColor=#000000;exitX=1;exitY=0.5;exitDx=0;exitDy=0;entryX=0;entryY=1;entryDx=0;entryDy=0;" parent="1" source="fVS2lUFFQ2VJKdbX-PjN-1" target="vplgkhuqn7GU1yu1RdBn-53" edge="1">
                    <mxGeometry width="50" height="50" relative="1" as="geometry">
                        <mxPoint x="470" y="1220" as="sourcePoint"/>
                        <mxPoint x="520" y="1170" as="targetPoint"/>
                    </mxGeometry>
                </mxCell>
                <mxCell id="fVS2lUFFQ2VJKdbX-PjN-3" value="" style="endArrow=none;html=1;rounded=0;labelBackgroundColor=#FFFFFF;fontSize=20;fontColor=#000000;exitX=0.5;exitY=0;exitDx=0;exitDy=0;entryX=0.5;entryY=1;entryDx=0;entryDy=0;" parent="1" source="vplgkhuqn7GU1yu1RdBn-53" target="vplgkhuqn7GU1yu1RdBn-244" edge="1">
                    <mxGeometry width="50" height="50" relative="1" as="geometry">
                        <mxPoint x="470" y="1220" as="sourcePoint"/>
                        <mxPoint x="520" y="1170" as="targetPoint"/>
                    </mxGeometry>
                </mxCell>
                <mxCell id="fVS2lUFFQ2VJKdbX-PjN-4" value="" style="endArrow=none;html=1;rounded=0;labelBackgroundColor=#FFFFFF;fontSize=20;fontColor=#000000;exitX=0;exitY=0;exitDx=0;exitDy=0;entryX=0.647;entryY=0.959;entryDx=0;entryDy=0;entryPerimeter=0;" parent="1" source="vplgkhuqn7GU1yu1RdBn-53" target="vplgkhuqn7GU1yu1RdBn-245" edge="1">
                    <mxGeometry width="50" height="50" relative="1" as="geometry">
                        <mxPoint x="470" y="1220" as="sourcePoint"/>
                        <mxPoint x="520" y="1170" as="targetPoint"/>
                    </mxGeometry>
                </mxCell>
                <mxCell id="fVS2lUFFQ2VJKdbX-PjN-5" value="" style="endArrow=none;html=1;rounded=0;labelBackgroundColor=#FFFFFF;fontSize=20;fontColor=#000000;exitX=0.63;exitY=0.016;exitDx=0;exitDy=0;exitPerimeter=0;entryX=0.644;entryY=1.032;entryDx=0;entryDy=0;entryPerimeter=0;" parent="1" source="vplgkhuqn7GU1yu1RdBn-69" target="vplgkhuqn7GU1yu1RdBn-53" edge="1">
                    <mxGeometry width="50" height="50" relative="1" as="geometry">
                        <mxPoint x="520" y="1440" as="sourcePoint"/>
                        <mxPoint x="570" y="1390" as="targetPoint"/>
                    </mxGeometry>
                </mxCell>
                <mxCell id="fVS2lUFFQ2VJKdbX-PjN-6" value="" style="endArrow=none;html=1;rounded=0;labelBackgroundColor=#FFFFFF;fontSize=20;fontColor=#000000;exitX=0;exitY=0;exitDx=0;exitDy=0;entryX=1;entryY=1;entryDx=0;entryDy=0;" parent="1" source="vplgkhuqn7GU1yu1RdBn-57" target="vplgkhuqn7GU1yu1RdBn-53" edge="1">
                    <mxGeometry width="50" height="50" relative="1" as="geometry">
                        <mxPoint x="520" y="1440" as="sourcePoint"/>
                        <mxPoint x="570" y="1390" as="targetPoint"/>
                    </mxGeometry>
                </mxCell>
                <mxCell id="fVS2lUFFQ2VJKdbX-PjN-7" value="" style="endArrow=none;html=1;rounded=0;labelBackgroundColor=#FFFFFF;fontSize=20;fontColor=#000000;entryX=0.5;entryY=1;entryDx=0;entryDy=0;exitX=0.25;exitY=0;exitDx=0;exitDy=0;" parent="1" source="vplgkhuqn7GU1yu1RdBn-54" target="vplgkhuqn7GU1yu1RdBn-246" edge="1">
                    <mxGeometry width="50" height="50" relative="1" as="geometry">
                        <mxPoint x="520" y="1440" as="sourcePoint"/>
                        <mxPoint x="570" y="1390" as="targetPoint"/>
                    </mxGeometry>
                </mxCell>
                <mxCell id="fVS2lUFFQ2VJKdbX-PjN-8" value="" style="endArrow=none;html=1;rounded=0;labelBackgroundColor=#FFFFFF;fontSize=20;fontColor=#000000;entryX=0.5;entryY=1;entryDx=0;entryDy=0;exitX=1;exitY=0;exitDx=0;exitDy=0;" parent="1" source="vplgkhuqn7GU1yu1RdBn-54" target="vplgkhuqn7GU1yu1RdBn-56" edge="1">
                    <mxGeometry width="50" height="50" relative="1" as="geometry">
                        <mxPoint x="520" y="1440" as="sourcePoint"/>
                        <mxPoint x="570" y="1390" as="targetPoint"/>
                    </mxGeometry>
                </mxCell>
                <mxCell id="fVS2lUFFQ2VJKdbX-PjN-9" value="" style="endArrow=none;html=1;rounded=0;labelBackgroundColor=#FFFFFF;fontSize=20;fontColor=#000000;entryX=0;entryY=0.5;entryDx=0;entryDy=0;exitX=1;exitY=0.5;exitDx=0;exitDy=0;" parent="1" source="vplgkhuqn7GU1yu1RdBn-54" target="vplgkhuqn7GU1yu1RdBn-231" edge="1">
                    <mxGeometry width="50" height="50" relative="1" as="geometry">
                        <mxPoint x="520" y="1440" as="sourcePoint"/>
                        <mxPoint x="570" y="1390" as="targetPoint"/>
                    </mxGeometry>
                </mxCell>
                <mxCell id="fVS2lUFFQ2VJKdbX-PjN-10" value="NUMBER OF QUIZZES CREATED" style="ellipse;whiteSpace=wrap;html=1;fontSize=20;strokeWidth=1;fillColor=#f5f5f5;fontColor=#333333;strokeColor=#666666;dashed=1;rounded=0;spacingTop=5;" parent="1" vertex="1">
                    <mxGeometry x="727" y="1620" width="203" height="90" as="geometry"/>
                </mxCell>
                <mxCell id="fVS2lUFFQ2VJKdbX-PjN-11" value="" style="endArrow=none;html=1;rounded=0;labelBackgroundColor=#FFFFFF;fontSize=20;fontColor=#000000;exitX=0.276;exitY=0.097;exitDx=0;exitDy=0;exitPerimeter=0;entryX=0.75;entryY=1;entryDx=0;entryDy=0;" parent="1" source="fVS2lUFFQ2VJKdbX-PjN-10" target="vplgkhuqn7GU1yu1RdBn-54" edge="1">
                    <mxGeometry width="50" height="50" relative="1" as="geometry">
                        <mxPoint x="440" y="1530" as="sourcePoint"/>
                        <mxPoint x="490" y="1480" as="targetPoint"/>
                    </mxGeometry>
                </mxCell>
            </root>
        </mxGraphModel>
    </diagram>
</mxfile>